<svg width="16" height="13" viewBox="0 0 16 13" fill="none" xmlns="http://www.w3.org/2000/svg">
<path d="M15.9981 1.76881C15.3982 2.02996 14.765 2.19319 14.0984 2.29112C14.765 1.89939 15.2982 1.27914 15.5315 0.528316C14.8983 0.887406 14.1984 1.14856 13.4319 1.31178C12.832 0.691539 11.9655 0.299805 11.0324 0.299805C9.23273 0.299805 7.76635 1.73616 7.76635 3.49897C7.76635 3.76012 7.79968 3.98863 7.86633 4.21714C5.16687 4.08657 2.73401 2.81343 1.101 0.854761C0.834389 1.34443 0.667756 1.86674 0.667756 2.45434C0.667756 3.56425 1.23431 4.54359 2.13413 5.13119C1.6009 5.09855 1.101 4.96797 0.634429 4.73946V4.7721C0.634429 6.33904 1.76754 7.64482 3.26724 7.93862C3.00063 8.00391 2.70069 8.03655 2.40075 8.03655C2.20079 8.03655 1.9675 8.00391 1.76754 7.97126C2.20079 9.2444 3.40055 10.1911 4.8336 10.1911C3.70049 11.0398 2.30077 11.5622 0.767736 11.5622C0.501122 11.5622 0.234508 11.5622 0.0012207 11.5295C1.4676 12.4436 3.16726 12.9659 5.03356 12.9659C11.0657 12.9659 14.365 8.0692 14.365 3.82541C14.365 3.69483 14.365 3.53161 14.365 3.40103C14.9983 2.97665 15.5648 2.4217 15.9981 1.76881Z" fill="white"/>
</svg>
