<svg width="21" height="20" viewBox="0 0 21 20" fill="none" xmlns="http://www.w3.org/2000/svg">
<path d="M10.4141 2.21173C13.0035 2.21173 13.3102 2.22123 14.3331 2.26692C14.9481 2.27429 15.5573 2.38491 16.1342 2.59397C16.5525 2.752 16.9324 2.99408 17.2495 3.30463C17.5665 3.61518 17.8136 3.98731 17.975 4.39708C18.1884 4.96213 18.3013 5.55884 18.3089 6.16128C18.355 7.16325 18.3652 7.46362 18.3652 10C18.3652 12.5364 18.3555 12.8367 18.3089 13.8387C18.3013 14.4412 18.1884 15.0379 17.975 15.6029C17.8136 16.0127 17.5665 16.3848 17.2495 16.6954C16.9324 17.0059 16.5525 17.248 16.1342 17.406C15.5573 17.6151 14.9481 17.7257 14.3331 17.7331C13.3106 17.7783 13.004 17.7883 10.4141 17.7883C7.8243 17.7883 7.51765 17.7788 6.4952 17.7331C5.88017 17.7257 5.27098 17.6151 4.69413 17.406C4.2758 17.248 3.89589 17.0059 3.57885 16.6954C3.26181 16.3848 3.01467 16.0127 2.85334 15.6029C2.63991 15.0379 2.52697 14.4412 2.51945 13.8387C2.47327 12.8367 2.46311 12.5364 2.46311 10C2.46311 7.46362 2.4728 7.16325 2.51945 6.16128C2.52697 5.55884 2.63991 4.96213 2.85334 4.39708C3.01467 3.98731 3.26181 3.61518 3.57885 3.30463C3.89589 2.99408 4.2758 2.752 4.69413 2.59397C5.27098 2.38491 5.88017 2.27429 6.4952 2.26692C7.51812 2.22168 7.82476 2.21173 10.4141 2.21173ZM10.4141 0.5C7.78181 0.5 7.45023 0.510857 6.41577 0.556997C5.61085 0.57268 4.81447 0.721964 4.06052 0.9985C3.41375 1.23719 2.82793 1.61125 2.34396 2.09457C1.85009 2.56881 1.46789 3.14295 1.22406 3.77689C0.941744 4.51541 0.789339 5.29548 0.773329 6.08392C0.727148 7.09631 0.716064 7.4211 0.716064 9.99955C0.716064 12.578 0.727148 12.9028 0.774253 13.9161C0.790263 14.7045 0.942667 15.4846 1.22498 16.2231C1.46855 16.857 1.85043 17.4311 2.34396 17.9054C2.8282 18.3889 3.41434 18.7629 4.06144 19.0015C4.8154 19.278 5.61177 19.4273 6.41669 19.443C7.45115 19.4882 7.78135 19.5 10.4151 19.5C13.0488 19.5 13.379 19.4891 14.4135 19.443C15.2184 19.4273 16.0147 19.278 16.7687 19.0015C17.4127 18.757 17.9976 18.3835 18.4858 17.9049C18.9741 17.4263 19.355 16.8532 19.6042 16.2222C19.8866 15.4837 20.039 14.7036 20.055 13.9152C20.1012 12.9028 20.1122 12.578 20.1122 9.99955C20.1122 7.4211 20.1012 7.09631 20.054 6.08302C20.038 5.29458 19.8856 4.51451 19.6033 3.77599C19.3598 3.14213 18.9779 2.56799 18.4843 2.09366C18.0001 1.61024 17.414 1.23617 16.7669 0.997595C16.0129 0.721059 15.2165 0.571775 14.4116 0.556093C13.3781 0.510857 13.0465 0.5 10.4141 0.5Z" fill="white"/>
<path d="M10.4131 5.12109C9.42807 5.12109 8.4652 5.4072 7.64621 5.94323C6.82722 6.47925 6.1889 7.24113 5.81196 8.13252C5.43502 9.0239 5.33639 10.0047 5.52856 10.951C5.72072 11.8973 6.19504 12.7665 6.89153 13.4488C7.58802 14.131 8.47541 14.5956 9.44147 14.7838C10.4075 14.9721 11.4089 14.8755 12.3189 14.5062C13.2289 14.137 14.0067 13.5118 14.5539 12.7095C15.1012 11.9073 15.3933 10.9642 15.3933 9.99934C15.3933 8.70555 14.8686 7.46475 13.9346 6.5499C13.0006 5.63505 11.7339 5.12109 10.4131 5.12109ZM10.4131 13.1659C9.77369 13.1659 9.14869 12.9801 8.61707 12.6322C8.08546 12.2843 7.67111 11.7897 7.42644 11.2111C7.18176 10.6325 7.11775 9.99583 7.24248 9.38158C7.36722 8.76734 7.6751 8.20312 8.1272 7.76027C8.5793 7.31743 9.15531 7.01585 9.78239 6.89367C10.4095 6.77148 11.0595 6.83419 11.6502 7.07386C12.2409 7.31352 12.7457 7.71939 13.1009 8.24012C13.4562 8.76085 13.6458 9.37306 13.6458 9.99934C13.6458 10.8392 13.3052 11.6446 12.6989 12.2384C12.0927 12.8322 11.2704 13.1659 10.4131 13.1659Z" fill="white"/>
<path d="M15.5908 6.06895C16.2335 6.06895 16.7545 5.55858 16.7545 4.92901C16.7545 4.29943 16.2335 3.78906 15.5908 3.78906C14.948 3.78906 14.427 4.29943 14.427 4.92901C14.427 5.55858 14.948 6.06895 15.5908 6.06895Z" fill="white"/>
</svg>
