<svg width="373" height="187" viewBox="0 0 373 187" fill="none" xmlns="http://www.w3.org/2000/svg">
<path d="M10 0.5H363C368.247 0.5 372.5 4.75329 372.5 10V323C372.5 328.247 368.247 332.5 363 332.5H9.99999C4.75329 332.5 0.5 328.247 0.5 323V9.99999C0.5 4.75329 4.75329 0.5 10 0.5Z" fill="white"/>
<path d="M10 0.5H363C368.247 0.5 372.5 4.75329 372.5 10V323C372.5 328.247 368.247 332.5 363 332.5H9.99999C4.75329 332.5 0.5 328.247 0.5 323V9.99999C0.5 4.75329 4.75329 0.5 10 0.5Z" stroke="#E5E6EB"/>
<g clip-path="url(#clip0_263_3348)">
<mask id="path-2-inside-1_263_3348" fill="white">
<path d="M12 12H361V43H12V12Z"/>
</mask>
<path d="M19.875 31.25L16.125 27.5L19.875 23.75" stroke="#9CA3AF" stroke-linecap="round" stroke-linejoin="round"/>
<path d="M169.91 34V21.4H172.16L176.426 29.788L180.674 21.4H182.924V34H181.016V24.694L177.164 32.2H175.688L171.818 24.712V34H169.91ZM188.436 34.216C187.68 34.216 187.056 34.09 186.564 33.838C186.072 33.586 185.706 33.256 185.466 32.848C185.226 32.428 185.106 31.972 185.106 31.48C185.106 30.616 185.442 29.932 186.114 29.428C186.786 28.924 187.746 28.672 188.994 28.672H191.334V28.51C191.334 27.814 191.142 27.292 190.758 26.944C190.386 26.596 189.9 26.422 189.3 26.422C188.772 26.422 188.31 26.554 187.914 26.818C187.53 27.07 187.296 27.448 187.212 27.952H185.304C185.364 27.304 185.58 26.752 185.952 26.296C186.336 25.828 186.816 25.474 187.392 25.234C187.98 24.982 188.622 24.856 189.318 24.856C190.566 24.856 191.532 25.186 192.216 25.846C192.9 26.494 193.242 27.382 193.242 28.51V34H191.586L191.424 32.47C191.172 32.962 190.806 33.376 190.326 33.712C189.846 34.048 189.216 34.216 188.436 34.216ZM188.814 32.668C189.33 32.668 189.762 32.548 190.11 32.308C190.47 32.056 190.746 31.726 190.938 31.318C191.142 30.91 191.268 30.46 191.316 29.968H189.192C188.436 29.968 187.896 30.1 187.572 30.364C187.26 30.628 187.104 30.958 187.104 31.354C187.104 31.762 187.254 32.086 187.554 32.326C187.866 32.554 188.286 32.668 188.814 32.668ZM196.229 37.96L198.371 33.262H197.849L194.321 25.072H196.391L199.127 31.678L201.989 25.072H204.005L198.245 37.96H196.229Z" fill="#9CA3AF"/>
<path d="M353.125 23.75L356.875 27.5L353.125 31.25" stroke="#9CA3AF" stroke-linecap="round" stroke-linejoin="round"/>
</g>
<path d="M361 42H12V44H361V42Z" fill="#E5E6EB" mask="url(#path-2-inside-1_263_3348)"/>
<g clip-path="url(#clip1_263_3348)">
<path d="M26.6048 75V63.8H28.1728L32.2048 71.608L36.2048 63.8H37.7888V75H36.4448V66.2L32.7008 73.4H31.6928L27.9488 66.216V75H26.6048ZM43.6876 75.192C42.941 75.192 42.269 75.0213 41.6716 74.68C41.0743 74.3387 40.5996 73.8587 40.2476 73.24C39.9063 72.6107 39.7356 71.8747 39.7356 71.032C39.7356 70.1893 39.9116 69.4587 40.2636 68.84C40.6156 68.2107 41.0903 67.7253 41.6876 67.384C42.2956 67.0427 42.973 66.872 43.7196 66.872C44.4663 66.872 45.1383 67.0427 45.7356 67.384C46.333 67.7253 46.8023 68.2107 47.1436 68.84C47.4956 69.4587 47.6716 70.1893 47.6716 71.032C47.6716 71.8747 47.4956 72.6107 47.1436 73.24C46.7916 73.8587 46.3116 74.3387 45.7036 74.68C45.1063 75.0213 44.4343 75.192 43.6876 75.192ZM43.6876 74.04C44.1463 74.04 44.573 73.928 44.9676 73.704C45.3623 73.48 45.6823 73.144 45.9276 72.696C46.173 72.248 46.2956 71.6933 46.2956 71.032C46.2956 70.3707 46.173 69.816 45.9276 69.368C45.693 68.92 45.3783 68.584 44.9836 68.36C44.589 68.136 44.1676 68.024 43.7196 68.024C43.261 68.024 42.8343 68.136 42.4396 68.36C42.045 68.584 41.725 68.92 41.4796 69.368C41.2343 69.816 41.1116 70.3707 41.1116 71.032C41.1116 71.6933 41.2343 72.248 41.4796 72.696C41.725 73.144 42.0396 73.48 42.4236 73.704C42.8183 73.928 43.2396 74.04 43.6876 74.04Z" fill="#9CA3AF"/>
<path d="M81.9375 75V64.904H78.5935V63.8H86.6255V64.904H83.2815V75H81.9375ZM90.2857 75.192C89.347 75.192 88.6004 74.9093 88.0457 74.344C87.491 73.768 87.2137 72.888 87.2137 71.704V67.064H88.5577V71.56C88.5577 73.2133 89.235 74.04 90.5897 74.04C91.283 74.04 91.8537 73.7947 92.3017 73.304C92.7604 72.8027 92.9897 72.0933 92.9897 71.176V67.064H94.3337V75H93.1177L93.0217 73.576C92.7764 74.0773 92.4084 74.472 91.9177 74.76C91.4377 75.048 90.8937 75.192 90.2857 75.192Z" fill="#9CA3AF"/>
<path d="M128.248 75.016L125.176 63.8H126.616L129.032 73.416L131.784 63.8H133.272L135.944 73.416L138.392 63.8H139.832L136.696 75H135.16L132.488 65.752L129.752 75L128.248 75.016ZM144.088 75.192C143.331 75.192 142.659 75.0213 142.072 74.68C141.486 74.328 141.022 73.8427 140.68 73.224C140.35 72.6053 140.184 71.8747 140.184 71.032C140.184 70.2 140.35 69.4747 140.68 68.856C141.011 68.2267 141.47 67.7413 142.056 67.4C142.654 67.048 143.342 66.872 144.12 66.872C144.888 66.872 145.55 67.048 146.104 67.4C146.67 67.7413 147.102 68.1947 147.4 68.76C147.699 69.3253 147.848 69.9333 147.848 70.584C147.848 70.7013 147.843 70.8187 147.832 70.936C147.832 71.0533 147.832 71.1867 147.832 71.336H141.512C141.544 71.944 141.683 72.4507 141.928 72.856C142.184 73.2507 142.499 73.5493 142.872 73.752C143.256 73.9547 143.662 74.056 144.088 74.056C144.643 74.056 145.107 73.928 145.48 73.672C145.854 73.416 146.126 73.0693 146.296 72.632H147.624C147.411 73.368 147 73.9813 146.392 74.472C145.795 74.952 145.027 75.192 144.088 75.192ZM144.088 68.008C143.448 68.008 142.878 68.2053 142.376 68.6C141.886 68.984 141.603 69.5493 141.528 70.296H146.52C146.488 69.5813 146.243 69.0213 145.784 68.616C145.326 68.2107 144.76 68.008 144.088 68.008Z" fill="#9CA3AF"/>
<path d="M181.253 75V64.904H177.909V63.8H185.941V64.904H182.597V75H181.253ZM187.502 75V63.48H188.846V68.424C189.113 67.9333 189.492 67.5547 189.982 67.288C190.473 67.0107 191.006 66.872 191.582 66.872C192.5 66.872 193.236 67.16 193.79 67.736C194.345 68.3013 194.622 69.176 194.622 70.36V75H193.294V70.504C193.294 68.8507 192.628 68.024 191.294 68.024C190.601 68.024 190.02 68.2747 189.55 68.776C189.081 69.2667 188.846 69.9707 188.846 70.888V75H187.502Z" fill="#9CA3AF"/>
<path d="M230.361 75V63.8H237.177V64.904H231.705V68.84H236.361V69.928H231.705V75H230.361ZM238.828 75V67.064H240.044L240.156 68.584C240.402 68.0613 240.775 67.6453 241.276 67.336C241.778 67.0267 242.396 66.872 243.132 66.872V68.28H242.764C242.295 68.28 241.863 68.3653 241.468 68.536C241.074 68.696 240.759 68.9733 240.524 69.368C240.29 69.7627 240.172 70.3067 240.172 71V75H238.828Z" fill="#9CA3AF"/>
<path d="M282.013 75.192C281.192 75.192 280.477 75.0427 279.869 74.744C279.261 74.4453 278.792 74.0293 278.461 73.496C278.13 72.9627 277.965 72.344 277.965 71.64H279.373C279.373 72.0773 279.474 72.4827 279.677 72.856C279.88 73.2187 280.173 73.512 280.557 73.736C280.952 73.9493 281.437 74.056 282.013 74.056C282.77 74.056 283.357 73.8747 283.773 73.512C284.189 73.1493 284.397 72.696 284.397 72.152C284.397 71.704 284.301 71.3467 284.109 71.08C283.917 70.8027 283.656 70.5787 283.325 70.408C283.005 70.2373 282.632 70.088 282.205 69.96C281.789 69.832 281.352 69.688 280.893 69.528C280.029 69.2293 279.389 68.8613 278.973 68.424C278.557 67.976 278.349 67.3947 278.349 66.68C278.338 66.0827 278.477 65.5547 278.765 65.096C279.053 64.6267 279.458 64.264 279.981 64.008C280.514 63.7413 281.144 63.608 281.869 63.608C282.584 63.608 283.202 63.7413 283.725 64.008C284.258 64.2747 284.669 64.6427 284.957 65.112C285.256 65.5813 285.41 66.1147 285.421 66.712H284.013C284.013 66.4027 283.933 66.0987 283.773 65.8C283.613 65.4907 283.368 65.24 283.037 65.048C282.717 64.856 282.312 64.76 281.821 64.76C281.213 64.7493 280.712 64.904 280.317 65.224C279.933 65.544 279.741 65.9867 279.741 66.552C279.741 67.032 279.874 67.4 280.141 67.656C280.418 67.912 280.802 68.1253 281.293 68.296C281.784 68.456 282.349 68.6427 282.989 68.856C283.522 69.048 284.002 69.272 284.429 69.528C284.856 69.784 285.186 70.1147 285.421 70.52C285.666 70.9253 285.789 71.4427 285.789 72.072C285.789 72.6053 285.65 73.112 285.373 73.592C285.096 74.0613 284.674 74.4453 284.109 74.744C283.554 75.0427 282.856 75.192 282.013 75.192ZM290.255 75.192C289.594 75.192 289.044 75.08 288.607 74.856C288.17 74.632 287.844 74.3333 287.631 73.96C287.418 73.5867 287.311 73.1813 287.311 72.744C287.311 71.9333 287.62 71.3093 288.239 70.872C288.858 70.4347 289.7 70.216 290.767 70.216H292.911V70.12C292.911 69.4267 292.73 68.904 292.367 68.552C292.004 68.1893 291.519 68.008 290.911 68.008C290.388 68.008 289.935 68.1413 289.551 68.408C289.178 68.664 288.943 69.0427 288.847 69.544H287.471C287.524 68.968 287.716 68.4827 288.047 68.088C288.388 67.6933 288.81 67.3947 289.311 67.192C289.812 66.9787 290.346 66.872 290.911 66.872C292.02 66.872 292.852 67.1707 293.407 67.768C293.972 68.3547 294.255 69.1387 294.255 70.12V75H293.055L292.975 73.576C292.751 74.024 292.42 74.408 291.983 74.728C291.556 75.0373 290.98 75.192 290.255 75.192ZM290.463 74.056C290.975 74.056 291.412 73.9227 291.775 73.656C292.148 73.3893 292.431 73.0427 292.623 72.616C292.815 72.1893 292.911 71.7413 292.911 71.272V71.256H290.879C290.09 71.256 289.53 71.3947 289.199 71.672C288.879 71.9387 288.719 72.2747 288.719 72.68C288.719 73.096 288.868 73.432 289.167 73.688C289.476 73.9333 289.908 74.056 290.463 74.056Z" fill="#9CA3AF"/>
<path d="M331.62 75.192C330.799 75.192 330.084 75.0427 329.476 74.744C328.868 74.4453 328.399 74.0293 328.068 73.496C327.738 72.9627 327.572 72.344 327.572 71.64H328.98C328.98 72.0773 329.082 72.4827 329.284 72.856C329.487 73.2187 329.78 73.512 330.164 73.736C330.559 73.9493 331.044 74.056 331.62 74.056C332.378 74.056 332.964 73.8747 333.38 73.512C333.796 73.1493 334.004 72.696 334.004 72.152C334.004 71.704 333.908 71.3467 333.716 71.08C333.524 70.8027 333.263 70.5787 332.932 70.408C332.612 70.2373 332.239 70.088 331.812 69.96C331.396 69.832 330.959 69.688 330.5 69.528C329.636 69.2293 328.996 68.8613 328.58 68.424C328.164 67.976 327.956 67.3947 327.956 66.68C327.946 66.0827 328.084 65.5547 328.372 65.096C328.66 64.6267 329.066 64.264 329.588 64.008C330.122 63.7413 330.751 63.608 331.476 63.608C332.191 63.608 332.81 63.7413 333.332 64.008C333.866 64.2747 334.276 64.6427 334.564 65.112C334.863 65.5813 335.018 66.1147 335.028 66.712H333.62C333.62 66.4027 333.54 66.0987 333.38 65.8C333.22 65.4907 332.975 65.24 332.644 65.048C332.324 64.856 331.919 64.76 331.428 64.76C330.82 64.7493 330.319 64.904 329.924 65.224C329.54 65.544 329.348 65.9867 329.348 66.552C329.348 67.032 329.482 67.4 329.748 67.656C330.026 67.912 330.41 68.1253 330.9 68.296C331.391 68.456 331.956 68.6427 332.596 68.856C333.13 69.048 333.61 69.272 334.036 69.528C334.463 69.784 334.794 70.1147 335.028 70.52C335.274 70.9253 335.396 71.4427 335.396 72.072C335.396 72.6053 335.258 73.112 334.98 73.592C334.703 74.0613 334.282 74.4453 333.716 74.744C333.162 75.0427 332.463 75.192 331.62 75.192ZM340.118 75.192C339.18 75.192 338.433 74.9093 337.878 74.344C337.324 73.768 337.046 72.888 337.046 71.704V67.064H338.39V71.56C338.39 73.2133 339.068 74.04 340.422 74.04C341.116 74.04 341.686 73.7947 342.134 73.304C342.593 72.8027 342.822 72.0933 342.822 71.176V67.064H344.166V75H342.95L342.854 73.576C342.609 74.0773 342.241 74.472 341.75 74.76C341.27 75.048 340.726 75.192 340.118 75.192Z" fill="#9CA3AF"/>
</g>
<g clip-path="url(#clip2_263_3348)">
<path d="M34.6176 124.192C33.903 124.192 33.2576 124.064 32.6816 123.808C32.1056 123.541 31.6416 123.147 31.2896 122.624C30.9483 122.101 30.767 121.451 30.7456 120.672H32.1056C32.1163 121.312 32.3403 121.867 32.7776 122.336C33.215 122.795 33.8283 123.024 34.6176 123.024C35.407 123.024 35.999 122.805 36.3936 122.368C36.799 121.931 37.0016 121.403 37.0016 120.784C37.0016 120.261 36.8736 119.835 36.6176 119.504C36.3723 119.173 36.0363 118.928 35.6096 118.768C35.1936 118.608 34.735 118.528 34.2336 118.528H33.4016V117.392H34.2336C34.959 117.392 35.5243 117.227 35.9296 116.896C36.3456 116.565 36.5536 116.101 36.5536 115.504C36.5536 115.003 36.3883 114.592 36.0576 114.272C35.7376 113.941 35.2576 113.776 34.6176 113.776C33.999 113.776 33.503 113.963 33.1296 114.336C32.7563 114.699 32.5483 115.157 32.5056 115.712H31.1456C31.1776 115.104 31.3376 114.565 31.6256 114.096C31.9243 113.627 32.3296 113.264 32.8416 113.008C33.3536 112.741 33.9456 112.608 34.6176 112.608C35.343 112.608 35.9456 112.736 36.4256 112.992C36.9163 113.248 37.2843 113.589 37.5296 114.016C37.7856 114.443 37.9136 114.912 37.9136 115.424C37.9136 115.989 37.759 116.507 37.4496 116.976C37.1403 117.435 36.6763 117.744 36.0576 117.904C36.719 118.043 37.2683 118.357 37.7056 118.848C38.143 119.339 38.3616 119.984 38.3616 120.784C38.3616 121.403 38.2176 121.973 37.9296 122.496C37.6523 123.008 37.2363 123.419 36.6816 123.728C36.127 124.037 35.439 124.192 34.6176 124.192ZM41.3743 124V114.304L39.5663 114.704V113.776L41.8223 112.8H42.7343V124H41.3743Z" fill="#9CA3AF"/>
<path d="M86.6639 124V114.304L84.8559 114.704V113.776L87.1119 112.8H88.0239V124H86.6639Z" fill="#1A1A1A"/>
<path d="M133.08 124V123.056C133.837 122.459 134.552 121.856 135.224 121.248C135.907 120.629 136.509 120.021 137.032 119.424C137.565 118.827 137.981 118.24 138.28 117.664C138.589 117.088 138.744 116.533 138.744 116C138.744 115.605 138.675 115.237 138.536 114.896C138.408 114.555 138.195 114.283 137.896 114.08C137.597 113.867 137.192 113.76 136.68 113.76C136.189 113.76 135.779 113.872 135.448 114.096C135.117 114.309 134.867 114.597 134.696 114.96C134.536 115.323 134.456 115.712 134.456 116.128H133.16C133.16 115.392 133.315 114.763 133.624 114.24C133.933 113.707 134.355 113.301 134.888 113.024C135.421 112.747 136.024 112.608 136.696 112.608C137.688 112.608 138.499 112.891 139.128 113.456C139.768 114.011 140.088 114.843 140.088 115.952C140.088 116.613 139.923 117.269 139.592 117.92C139.261 118.56 138.84 119.184 138.328 119.792C137.816 120.389 137.267 120.949 136.68 121.472C136.104 121.995 135.565 122.464 135.064 122.88H140.472V124H133.08Z" fill="#1A1A1A"/>
<path d="M186.479 124.192C185.764 124.192 185.119 124.064 184.543 123.808C183.967 123.541 183.503 123.147 183.151 122.624C182.81 122.101 182.628 121.451 182.607 120.672H183.967C183.978 121.312 184.202 121.867 184.639 122.336C185.076 122.795 185.69 123.024 186.479 123.024C187.268 123.024 187.86 122.805 188.255 122.368C188.66 121.931 188.863 121.403 188.863 120.784C188.863 120.261 188.735 119.835 188.479 119.504C188.234 119.173 187.898 118.928 187.471 118.768C187.055 118.608 186.596 118.528 186.095 118.528H185.263V117.392H186.095C186.82 117.392 187.386 117.227 187.791 116.896C188.207 116.565 188.415 116.101 188.415 115.504C188.415 115.003 188.25 114.592 187.919 114.272C187.599 113.941 187.119 113.776 186.479 113.776C185.86 113.776 185.364 113.963 184.991 114.336C184.618 114.699 184.41 115.157 184.367 115.712H183.007C183.039 115.104 183.199 114.565 183.487 114.096C183.786 113.627 184.191 113.264 184.703 113.008C185.215 112.741 185.807 112.608 186.479 112.608C187.204 112.608 187.807 112.736 188.287 112.992C188.778 113.248 189.146 113.589 189.391 114.016C189.647 114.443 189.775 114.912 189.775 115.424C189.775 115.989 189.62 116.507 189.311 116.976C189.002 117.435 188.538 117.744 187.919 117.904C188.58 118.043 189.13 118.357 189.567 118.848C190.004 119.339 190.223 119.984 190.223 120.784C190.223 121.403 190.079 121.973 189.791 122.496C189.514 123.008 189.098 123.419 188.543 123.728C187.988 124.037 187.3 124.192 186.479 124.192Z" fill="#1A1A1A"/>
<path d="M237.782 124V121.6H232.102V120.56L237.542 112.8H239.11V120.416H240.774V121.6H239.11V124H237.782ZM233.59 120.416H237.846V114.288L233.59 120.416Z" fill="#1A1A1A"/>
<path d="M286.324 124.192C285.556 124.192 284.889 124.053 284.324 123.776C283.758 123.499 283.305 123.12 282.964 122.64C282.633 122.149 282.43 121.595 282.356 120.976H283.668C283.796 121.595 284.094 122.096 284.564 122.48C285.033 122.853 285.625 123.04 286.34 123.04C286.873 123.04 287.332 122.917 287.716 122.672C288.1 122.416 288.393 122.075 288.596 121.648C288.809 121.221 288.916 120.747 288.916 120.224C288.916 119.392 288.681 118.72 288.212 118.208C287.742 117.696 287.134 117.44 286.388 117.44C285.769 117.44 285.241 117.579 284.804 117.856C284.366 118.133 284.046 118.496 283.844 118.944H282.564L283.524 112.8H289.396V113.968H284.564L283.908 117.376C284.164 117.067 284.516 116.811 284.964 116.608C285.422 116.405 285.945 116.304 286.532 116.304C287.268 116.304 287.908 116.475 288.452 116.816C289.006 117.157 289.438 117.621 289.748 118.208C290.057 118.795 290.212 119.461 290.212 120.208C290.212 120.923 290.057 121.584 289.748 122.192C289.449 122.8 289.006 123.285 288.42 123.648C287.844 124.011 287.145 124.192 286.324 124.192Z" fill="#1A1A1A"/>
<path d="M336.267 124.192C335.456 124.192 334.774 124.043 334.219 123.744C333.664 123.435 333.216 123.024 332.875 122.512C332.544 122 332.299 121.429 332.139 120.8C331.99 120.16 331.915 119.509 331.915 118.848C331.915 117.611 332.086 116.528 332.427 115.6C332.768 114.661 333.259 113.931 333.899 113.408C334.55 112.875 335.334 112.608 336.251 112.608C336.955 112.608 337.558 112.747 338.059 113.024C338.56 113.301 338.955 113.675 339.243 114.144C339.542 114.603 339.728 115.115 339.803 115.68H338.555C338.438 115.072 338.176 114.603 337.771 114.272C337.366 113.941 336.854 113.776 336.235 113.776C335.392 113.776 334.683 114.176 334.107 114.976C333.542 115.765 333.238 117.003 333.195 118.688C333.451 118.187 333.856 117.755 334.411 117.392C334.976 117.019 335.654 116.832 336.443 116.832C337.083 116.832 337.68 116.981 338.235 117.28C338.8 117.579 339.259 118 339.611 118.544C339.963 119.077 340.139 119.707 340.139 120.432C340.139 121.061 339.984 121.664 339.675 122.24C339.366 122.816 338.918 123.285 338.331 123.648C337.755 124.011 337.067 124.192 336.267 124.192ZM336.171 123.008C336.672 123.008 337.12 122.901 337.515 122.688C337.91 122.475 338.219 122.181 338.443 121.808C338.667 121.424 338.779 120.987 338.779 120.496C338.779 119.739 338.528 119.136 338.027 118.688C337.536 118.229 336.918 118 336.171 118C335.67 118 335.222 118.117 334.827 118.352C334.432 118.576 334.118 118.88 333.883 119.264C333.659 119.648 333.547 120.064 333.547 120.512C333.547 120.992 333.659 121.424 333.883 121.808C334.118 122.181 334.432 122.475 334.827 122.688C335.222 122.901 335.67 123.008 336.171 123.008Z" fill="#1A1A1A"/>
</g>
<g clip-path="url(#clip3_263_3348)">
<rect x="21.93" y="148.5" width="30" height="30" rx="15" fill="#184BFE"/>
<path d="M34.7764 169L39.2244 158.952H33.0804V157.8H40.6004V158.808L36.2004 169H34.7764Z" fill="white"/>
<path d="M86.7872 169.192C86.0512 169.192 85.3899 169.059 84.8032 168.792C84.2165 168.515 83.7525 168.136 83.4112 167.656C83.0805 167.165 82.9152 166.6 82.9152 165.96C82.9152 165.277 83.1125 164.664 83.5072 164.12C83.9125 163.576 84.4459 163.213 85.1072 163.032C84.4992 162.829 84.0299 162.504 83.6992 162.056C83.3685 161.608 83.2032 161.117 83.2032 160.584C83.2032 160.04 83.3472 159.544 83.6352 159.096C83.9232 158.637 84.3339 158.275 84.8672 158.008C85.4005 157.741 86.0405 157.608 86.7872 157.608C87.5339 157.608 88.1739 157.741 88.7072 158.008C89.2405 158.275 89.6512 158.637 89.9392 159.096C90.2272 159.544 90.3712 160.04 90.3712 160.584C90.3712 161.107 90.2059 161.597 89.8752 162.056C89.5445 162.504 89.0752 162.829 88.4672 163.032C89.1285 163.213 89.6565 163.576 90.0512 164.12C90.4565 164.664 90.6592 165.277 90.6592 165.96C90.6592 166.6 90.4885 167.165 90.1472 167.656C89.8165 168.136 89.3579 168.515 88.7712 168.792C88.1845 169.059 87.5232 169.192 86.7872 169.192ZM86.7872 162.552C87.4699 162.552 88.0085 162.381 88.4032 162.04C88.8085 161.688 89.0112 161.229 89.0112 160.664C89.0112 160.035 88.8139 159.56 88.4192 159.24C88.0245 158.92 87.4805 158.76 86.7872 158.76C86.0939 158.76 85.5499 158.92 85.1552 159.24C84.7712 159.56 84.5792 160.035 84.5792 160.664C84.5792 161.229 84.7765 161.688 85.1712 162.04C85.5659 162.381 86.1045 162.552 86.7872 162.552ZM86.7872 168.008C87.6299 168.008 88.2592 167.816 88.6752 167.432C89.1019 167.037 89.3152 166.52 89.3152 165.88C89.3152 165.155 89.0859 164.605 88.6272 164.232C88.1685 163.859 87.5552 163.672 86.7872 163.672C86.0192 163.672 85.4059 163.859 84.9472 164.232C84.4885 164.605 84.2592 165.155 84.2592 165.88C84.2592 166.52 84.4672 167.037 84.8832 167.432C85.3099 167.816 85.9445 168.008 86.7872 168.008Z" fill="#1A1A1A"/>
<path d="M136.647 169.192C135.911 169.192 135.25 169.059 134.663 168.792C134.077 168.515 133.613 168.136 133.271 167.656C132.941 167.165 132.775 166.6 132.775 165.96C132.775 165.277 132.973 164.664 133.367 164.12C133.773 163.576 134.306 163.213 134.967 163.032C134.359 162.829 133.89 162.504 133.559 162.056C133.229 161.608 133.063 161.117 133.063 160.584C133.063 160.04 133.207 159.544 133.495 159.096C133.783 158.637 134.194 158.275 134.727 158.008C135.261 157.741 135.901 157.608 136.647 157.608C137.394 157.608 138.034 157.741 138.567 158.008C139.101 158.275 139.511 158.637 139.799 159.096C140.087 159.544 140.231 160.04 140.231 160.584C140.231 161.107 140.066 161.597 139.735 162.056C139.405 162.504 138.935 162.829 138.327 163.032C138.989 163.213 139.517 163.576 139.911 164.12C140.317 164.664 140.519 165.277 140.519 165.96C140.519 166.6 140.349 167.165 140.007 167.656C139.677 168.136 139.218 168.515 138.631 168.792C138.045 169.059 137.383 169.192 136.647 169.192ZM136.647 162.552C137.33 162.552 137.869 162.381 138.263 162.04C138.669 161.688 138.871 161.229 138.871 160.664C138.871 160.035 138.674 159.56 138.279 159.24C137.885 158.92 137.341 158.76 136.647 158.76C135.954 158.76 135.41 158.92 135.015 159.24C134.631 159.56 134.439 160.035 134.439 160.664C134.439 161.229 134.637 161.688 135.031 162.04C135.426 162.381 135.965 162.552 136.647 162.552ZM136.647 168.008C137.49 168.008 138.119 167.816 138.535 167.432C138.962 167.037 139.175 166.52 139.175 165.88C139.175 165.155 138.946 164.605 138.487 164.232C138.029 163.859 137.415 163.672 136.647 163.672C135.879 163.672 135.266 163.859 134.807 164.232C134.349 164.605 134.119 165.155 134.119 165.88C134.119 166.52 134.327 167.037 134.743 167.432C135.17 167.816 135.805 168.008 136.647 168.008Z" fill="#1A1A1A"/>
<path d="M186.351 169.192C185.647 169.192 185.044 169.053 184.543 168.776C184.042 168.499 183.642 168.131 183.343 167.672C183.055 167.203 182.879 166.685 182.815 166.12H184.063C184.17 166.728 184.426 167.197 184.831 167.528C185.236 167.859 185.748 168.024 186.367 168.024C187.22 168.024 187.93 167.629 188.495 166.84C189.06 166.04 189.364 164.797 189.407 163.112C189.151 163.613 188.74 164.051 188.175 164.424C187.62 164.787 186.948 164.968 186.159 164.968C185.53 164.968 184.932 164.819 184.367 164.52C183.802 164.221 183.343 163.805 182.991 163.272C182.639 162.728 182.463 162.093 182.463 161.368C182.463 160.739 182.618 160.136 182.927 159.56C183.247 158.984 183.695 158.515 184.271 158.152C184.847 157.789 185.535 157.608 186.335 157.608C187.146 157.608 187.828 157.763 188.383 158.072C188.938 158.371 189.38 158.776 189.711 159.288C190.052 159.8 190.298 160.376 190.447 161.016C190.607 161.645 190.687 162.291 190.687 162.952C190.687 164.189 190.516 165.277 190.175 166.216C189.834 167.144 189.338 167.875 188.687 168.408C188.047 168.931 187.268 169.192 186.351 169.192ZM186.431 163.8C186.932 163.8 187.38 163.688 187.775 163.464C188.17 163.229 188.484 162.92 188.719 162.536C188.954 162.152 189.071 161.736 189.071 161.288C189.071 160.808 188.954 160.381 188.719 160.008C188.484 159.624 188.17 159.325 187.775 159.112C187.38 158.899 186.932 158.792 186.431 158.792C185.93 158.792 185.482 158.899 185.087 159.112C184.692 159.325 184.383 159.624 184.159 160.008C183.935 160.381 183.823 160.813 183.823 161.304C183.823 162.061 184.068 162.669 184.559 163.128C185.06 163.576 185.684 163.8 186.431 163.8Z" fill="#1A1A1A"/>
<path d="M230.697 169V159.304L228.889 159.704V158.776L231.145 157.8H232.057V169H230.697ZM238.789 169.192C237.797 169.192 236.939 168.952 236.213 168.472C235.499 167.981 234.949 167.304 234.565 166.44C234.181 165.565 233.989 164.552 233.989 163.4C233.989 162.248 234.181 161.24 234.565 160.376C234.949 159.501 235.499 158.824 236.213 158.344C236.939 157.853 237.797 157.608 238.789 157.608C239.781 157.608 240.635 157.853 241.349 158.344C242.064 158.824 242.613 159.501 242.997 160.376C243.381 161.24 243.573 162.248 243.573 163.4C243.573 164.552 243.381 165.565 242.997 166.44C242.613 167.304 242.064 167.981 241.349 168.472C240.635 168.952 239.781 169.192 238.789 169.192ZM238.789 168.008C239.44 168.008 240.021 167.827 240.533 167.464C241.056 167.091 241.461 166.563 241.749 165.88C242.048 165.187 242.197 164.36 242.197 163.4C242.197 162.44 242.048 161.619 241.749 160.936C241.461 160.253 241.056 159.731 240.533 159.368C240.021 158.995 239.44 158.808 238.789 158.808C238.128 158.808 237.541 158.995 237.029 159.368C236.517 159.731 236.112 160.253 235.813 160.936C235.515 161.619 235.365 162.44 235.365 163.4C235.365 164.36 235.515 165.187 235.813 165.88C236.112 166.563 236.517 167.091 237.029 167.464C237.541 167.827 238.128 168.008 238.789 168.008Z" fill="#1A1A1A"/>
<path d="M283.69 169V159.304L281.882 159.704V158.776L284.138 157.8H285.05V169H283.69ZM288.518 169V159.304L286.71 159.704V158.776L288.966 157.8H289.878V169H288.518Z" fill="#1A1A1A"/>
<path d="M331.386 169V159.304L329.578 159.704V158.776L331.834 157.8H332.746V169H331.386ZM334.934 169V168.056C335.691 167.459 336.406 166.856 337.078 166.248C337.761 165.629 338.363 165.021 338.886 164.424C339.419 163.827 339.835 163.24 340.134 162.664C340.443 162.088 340.598 161.533 340.598 161C340.598 160.605 340.529 160.237 340.39 159.896C340.262 159.555 340.049 159.283 339.75 159.08C339.451 158.867 339.046 158.76 338.534 158.76C338.043 158.76 337.633 158.872 337.302 159.096C336.971 159.309 336.721 159.597 336.55 159.96C336.39 160.323 336.31 160.712 336.31 161.128H335.014C335.014 160.392 335.169 159.763 335.478 159.24C335.787 158.707 336.209 158.301 336.742 158.024C337.275 157.747 337.878 157.608 338.55 157.608C339.542 157.608 340.353 157.891 340.982 158.456C341.622 159.011 341.942 159.843 341.942 160.952C341.942 161.613 341.777 162.269 341.446 162.92C341.115 163.56 340.694 164.184 340.182 164.792C339.67 165.389 339.121 165.949 338.534 166.472C337.958 166.995 337.419 167.464 336.918 167.88H342.326V169H334.934Z" fill="#1A1A1A"/>
</g>
<defs>
<clipPath id="clip0_263_3348">
<path d="M12 12H361V43H12V12Z" fill="white"/>
</clipPath>
<clipPath id="clip1_263_3348">
<rect width="349" height="21" fill="white" transform="translate(12 59)"/>
</clipPath>
<clipPath id="clip2_263_3348">
<rect width="349" height="45" fill="white" transform="translate(12 96)"/>
</clipPath>
<clipPath id="clip3_263_3348">
<rect width="349" height="45" fill="white" transform="translate(12 141)"/>
</clipPath>
</defs>
</svg>
