<svg width="524" height="187" viewBox="0 0 524 187" fill="none" xmlns="http://www.w3.org/2000/svg">
<g style="mix-blend-mode:multiply" opacity="0.33">
<path d="M10.0479 97.4308C7.12503 97.0466 2.13144 98.8715 0 99.832V186.598H524.292V87.1862C521.78 87.1862 522.237 87.1862 518.126 83.9848C514.016 80.7834 512.874 79.3427 506.024 81.7438C499.173 84.1449 498.26 81.7438 493.693 77.4219C489.126 73.1 486.842 74.3805 481.362 75.8212C475.882 77.2618 474.968 71.3392 469.14 67.3374C463.312 63.3356 460.81 72.1395 458.527 78.3823C456.257 84.5873 451.055 90.3179 446.283 95.5741L446.196 95.67C441.401 100.952 434.322 93.5891 432.038 90.3877C429.755 87.1862 429.07 86.706 422.219 87.1862C415.369 87.6664 413.314 85.5855 411.03 81.7438C408.747 77.9021 409.203 78.8625 403.951 75.8212C398.699 72.7798 396.188 74.8607 393.219 74.3805C390.25 73.9003 386.825 68.2978 384.542 65.0964C382.258 61.895 382.486 59.654 375.636 61.0946C368.884 62.5145 367.456 60.8245 363.918 56.6374L363.762 56.4525C360.108 52.1306 357.596 50.8501 350.289 48.6091C342.982 46.3681 345.265 47.3284 339.785 48.6091C334.305 49.8897 331.564 48.1288 328.139 45.0875C324.714 42.0461 325.856 35.9634 316.493 38.3645C307.131 40.7656 305.076 35.003 303.021 28.9203C300.966 22.8376 295.257 22.8376 289.548 24.1181C283.839 25.3986 281.327 16.5948 280.871 10.5121C280.414 4.42939 279.957 2.02832 273.335 2.02832C266.713 2.02832 267.17 11.6325 264.658 24.1181C262.146 36.6037 263.516 36.9238 255.981 37.404L255.98 37.4041C248.445 37.8843 248.445 37.8843 244.335 47.3284C240.224 56.7726 238.626 56.4525 231.319 56.4525C224.012 56.4525 221.271 63.9758 218.76 71.8194C216.278 79.5698 210.897 77.4736 202.838 74.334L202.547 74.2204C194.326 71.019 192.499 71.8194 187.247 60.4543C181.995 49.0891 175.373 54.3716 172.405 61.4147C169.436 68.4579 167.838 69.4183 162.814 71.8194C157.79 74.2205 152.766 74.8607 150.94 79.1826C149.113 83.5046 142.947 87.0261 137.695 84.465C132.443 81.9039 128.561 82.5441 125.593 87.0261C122.624 91.5081 119.656 91.3481 116.23 91.8283C112.805 92.3085 105.498 91.8283 101.844 96.3104C98.1908 100.792 93.1672 99.832 90.4269 98.8714C87.6867 97.9109 81.978 97.4308 80.1512 98.8714C78.3244 100.312 72.844 105.434 66.7886 97.4308C60.7331 89.4272 53.891 94.7097 52.5209 96.3104L52.4661 96.3744C51.0667 98.0108 47.8881 101.728 42.9302 99.832C37.9065 97.9111 33.7962 97.4308 29.9142 99.832C26.0323 102.233 22.3787 103.193 19.6385 101.753C16.8983 100.312 13.7014 97.9111 10.0479 97.4308Z" fill="url(#paint0_linear_257_237)"/>
</g>
<path d="M2.05588 99.0424C4.17073 98.0894 9.12546 96.2787 12.0255 96.66C15.6506 97.1365 18.8226 99.5189 21.5415 100.948C24.2604 102.378 27.8855 101.425 31.7373 99.0424C35.589 96.66 39.6673 97.1366 44.6519 99.0424C49.6365 100.948 52.8085 97.1365 54.168 95.5483C55.5274 93.96 62.3163 88.7187 68.3246 96.66C74.3329 104.601 79.7707 99.5188 81.5833 98.0894C83.3958 96.66 89.0602 97.1363 91.779 98.0894C94.4979 99.0424 99.4825 99.9955 103.108 95.5483C106.733 91.101 113.983 91.5775 117.382 91.1011C120.78 90.6246 123.726 90.7834 126.671 86.3363C129.617 81.8891 133.468 81.2539 138.68 83.7951C143.891 86.3363 150.008 82.8421 151.821 78.5538C153.633 74.2655 158.618 73.6303 163.603 71.2479C168.587 68.8655 170.173 67.9125 173.119 60.9242C176.064 53.9359 182.635 48.6945 187.846 59.9712C193.057 71.2479 194.87 70.4537 203.026 73.6302C211.183 76.8067 216.621 79.0304 219.113 71.2479C221.605 63.4654 224.324 56.0006 231.574 56.0006C238.825 56.0006 240.411 56.3182 244.489 46.9475C248.567 37.5768 248.567 37.5769 256.044 37.1004C263.521 36.6239 262.162 36.3062 264.654 23.9179C267.146 11.5295 266.693 2 273.264 2C279.834 2 280.287 4.38238 280.741 10.4177C281.194 16.4531 283.686 25.1884 289.35 23.9179C295.015 22.6473 300.679 22.6473 302.718 28.6827C304.757 34.718 306.797 40.4358 316.086 38.0534C325.375 35.671 324.243 41.7064 327.641 44.724C331.04 47.7417 333.759 49.4889 339.196 48.2182C344.634 46.9475 342.368 45.9946 349.619 48.2182C356.869 50.4418 359.361 51.7124 362.986 56.0006C366.612 60.2889 367.971 62.036 374.768 60.6066C381.565 59.1772 381.339 61.4007 383.605 64.5772C385.87 67.7537 389.269 73.3126 392.214 73.7891C395.16 74.2656 397.652 72.2008 402.863 75.2185C408.074 78.2362 407.621 77.2833 409.887 81.0951C412.153 84.9069 414.192 86.9716 420.989 86.4951C427.786 86.0187 428.466 86.4951 430.732 89.6716C432.997 92.8481 440.021 100.154 444.779 94.9129C449.537 89.6716 454.748 83.9539 457.014 77.7597C459.28 71.5655 461.762 62.8301 467.545 66.8008C473.327 70.7714 474.234 76.648 479.671 75.2185C485.109 73.7891 487.375 72.5185 491.906 76.8068C496.438 81.0951 497.344 83.4774 504.141 81.0951C510.938 78.7127 512.071 80.1421 516.15 83.3186C520.228 86.4951 519.775 86.4951 522.267 86.4951" stroke="#184BFE" stroke-width="4" stroke-linecap="round"/>
<line x1="179.973" y1="53.5938" x2="180.992" y2="185.992" stroke="white" stroke-width="2" stroke-linecap="round" stroke-dasharray="7 7"/>
<g filter="url(#filter0_d_257_237)">
<circle cx="180.5" cy="57.5" r="12.5" fill="#184BFE"/>
<circle cx="180.5" cy="57.5" r="10.5" stroke="white" stroke-width="4"/>
</g>
<defs>
<filter id="filter0_d_257_237" x="160" y="45" width="41" height="41" filterUnits="userSpaceOnUse" color-interpolation-filters="sRGB">
<feFlood flood-opacity="0" result="BackgroundImageFix"/>
<feColorMatrix in="SourceAlpha" type="matrix" values="0 0 0 0 0 0 0 0 0 0 0 0 0 0 0 0 0 0 127 0" result="hardAlpha"/>
<feOffset dy="8"/>
<feGaussianBlur stdDeviation="4"/>
<feComposite in2="hardAlpha" operator="out"/>
<feColorMatrix type="matrix" values="0 0 0 0 0.0509804 0 0 0 0 0.0392157 0 0 0 0 0.172549 0 0 0 0.08 0"/>
<feBlend mode="normal" in2="BackgroundImageFix" result="effect1_dropShadow_257_237"/>
<feBlend mode="normal" in="SourceGraphic" in2="effect1_dropShadow_257_237" result="shape"/>
</filter>
<linearGradient id="paint0_linear_257_237" x1="262.146" y1="2.02832" x2="262.146" y2="169.036" gradientUnits="userSpaceOnUse">
<stop stop-color="#184BFE"/>
<stop offset="0.46679" stop-color="#184BFE" stop-opacity="0.2"/>
<stop offset="1" stop-color="white"/>
</linearGradient>
</defs>
</svg>
