<svg width="524" height="187" viewBox="0 0 524 187" fill="none" xmlns="http://www.w3.org/2000/svg">
<path d="M2.05588 99.0424C4.17073 98.0894 9.12546 96.2787 12.0255 96.66C15.6506 97.1365 18.8226 99.5189 21.5415 100.948C24.2604 102.378 27.8855 101.425 31.7373 99.0424C35.589 96.66 39.6673 97.1366 44.6519 99.0424C49.6365 100.948 52.8085 97.1365 54.168 95.5483C55.5274 93.96 62.3163 88.7187 68.3246 96.66C74.3329 104.601 79.7707 99.5188 81.5833 98.0894C83.3958 96.66 89.0602 97.1363 91.779 98.0894C94.4979 99.0424 99.4825 99.9955 103.108 95.5483C106.733 91.101 113.983 91.5775 117.382 91.1011C120.78 90.6246 123.726 90.7834 126.671 86.3363C129.617 81.8891 133.468 81.2539 138.68 83.7951C143.891 86.3363 150.008 82.8421 151.821 78.5538C153.633 74.2655 158.618 73.6303 163.603 71.2479C168.587 68.8655 170.173 67.9125 173.119 60.9242C176.064 53.9359 182.635 48.6945 187.846 59.9712C193.057 71.2479 194.87 70.4537 203.026 73.6302C211.183 76.8067 216.621 79.0304 219.113 71.2479C221.605 63.4654 224.324 56.0006 231.574 56.0006C238.825 56.0006 240.411 56.3182 244.489 46.9475C248.567 37.5768 248.567 37.5769 256.044 37.1004C263.521 36.6239 262.162 36.3062 264.654 23.9179C267.146 11.5295 266.693 2 273.264 2C279.834 2 280.287 4.38238 280.741 10.4177C281.194 16.4531 283.686 25.1884 289.35 23.9179C295.015 22.6473 300.679 22.6473 302.718 28.6827C304.757 34.718 306.797 40.4358 316.086 38.0534C325.375 35.671 324.243 41.7064 327.641 44.724C331.04 47.7417 333.759 49.4889 339.196 48.2182C344.634 46.9475 342.368 45.9946 349.619 48.2182C356.869 50.4418 359.361 51.7124 362.986 56.0006C366.612 60.2889 367.971 62.036 374.768 60.6066C381.565 59.1772 381.339 61.4007 383.605 64.5772C385.87 67.7537 389.269 73.3126 392.214 73.7891C395.16 74.2656 397.652 72.2008 402.863 75.2185C408.074 78.2362 407.621 77.2833 409.887 81.0951C412.153 84.9069 414.192 86.9716 420.989 86.4951C427.786 86.0187 428.466 86.4951 430.732 89.6716C432.997 92.8481 440.021 100.154 444.779 94.9129C449.537 89.6716 454.748 83.9539 457.014 77.7597C459.28 71.5655 461.762 62.8301 467.545 66.8008C473.327 70.7714 474.234 76.648 479.671 75.2185C485.109 73.7891 487.375 72.5185 491.906 76.8068C496.438 81.0951 497.344 83.4774 504.141 81.0951C510.938 78.7127 512.071 80.1421 516.15 83.3186C520.228 86.4951 519.775 86.4951 522.267 86.4951" stroke="#184BFE" stroke-width="4" stroke-linecap="round"/>
</svg>
