<svg width="131" height="131" viewBox="0 0 131 131" fill="none" xmlns="http://www.w3.org/2000/svg">
<g opacity="0.2">
<mask id="path-1-inside-1_329_2105" fill="white">
<path d="M131 65.5C131 101.675 101.675 131 65.5 131C29.3253 131 0 101.675 0 65.5C0 29.3253 29.3253 0 65.5 0C101.675 0 131 29.3253 131 65.5ZM8.515 65.5C8.515 96.9719 34.0281 122.485 65.5 122.485C96.9719 122.485 122.485 96.9719 122.485 65.5C122.485 34.0281 96.9719 8.515 65.5 8.515C34.0281 8.515 8.515 34.0281 8.515 65.5Z"/>
</mask>
<path d="M131 65.5C131 101.675 101.675 131 65.5 131C29.3253 131 0 101.675 0 65.5C0 29.3253 29.3253 0 65.5 0C101.675 0 131 29.3253 131 65.5ZM8.515 65.5C8.515 96.9719 34.0281 122.485 65.5 122.485C96.9719 122.485 122.485 96.9719 122.485 65.5C122.485 34.0281 96.9719 8.515 65.5 8.515C34.0281 8.515 8.515 34.0281 8.515 65.5Z" stroke="white" stroke-width="60" stroke-linecap="round" mask="url(#path-1-inside-1_329_2105)"/>
</g>
<mask id="path-2-inside-2_329_2105" fill="white">
<path d="M126.743 65.5C129.094 65.5 131.014 67.4082 130.862 69.7546C130.251 79.1383 127.625 88.2982 123.144 96.6031C117.988 106.159 110.537 114.284 101.461 120.245C92.3853 126.207 81.9699 129.819 71.1518 130.756C60.3337 131.693 49.4523 129.925 39.4868 125.613C29.5213 121.3 20.7842 114.578 14.0617 106.051C7.33925 97.5232 2.84225 87.4583 0.97534 76.7614C-0.891569 66.0645 -0.0698079 55.0712 3.36669 44.7708C6.3532 35.8191 11.2331 27.6347 17.6554 20.7659C19.2613 19.0483 21.967 19.1421 23.5766 20.8561C25.1862 22.5702 25.0883 25.2544 23.4991 26.9874C18.0971 32.8787 13.9837 39.8532 11.444 47.4656C8.45427 56.427 7.73933 65.9911 9.36354 75.2974C10.9878 84.6037 14.9001 93.3602 20.7487 100.779C26.5973 108.198 34.1985 114.046 42.8685 117.798C51.5385 121.55 61.0053 123.088 70.417 122.272C79.8288 121.457 88.8902 118.315 96.7861 113.128C104.682 107.942 111.164 100.874 115.65 92.5597C119.461 85.4974 121.729 77.7244 122.326 69.7536C122.502 67.4088 124.391 65.5 126.743 65.5Z"/>
</mask>
<path d="M126.743 65.5C129.094 65.5 131.014 67.4082 130.862 69.7546C130.251 79.1383 127.625 88.2982 123.144 96.6031C117.988 106.159 110.537 114.284 101.461 120.245C92.3853 126.207 81.9699 129.819 71.1518 130.756C60.3337 131.693 49.4523 129.925 39.4868 125.613C29.5213 121.3 20.7842 114.578 14.0617 106.051C7.33925 97.5232 2.84225 87.4583 0.97534 76.7614C-0.891569 66.0645 -0.0698079 55.0712 3.36669 44.7708C6.3532 35.8191 11.2331 27.6347 17.6554 20.7659C19.2613 19.0483 21.967 19.1421 23.5766 20.8561C25.1862 22.5702 25.0883 25.2544 23.4991 26.9874C18.0971 32.8787 13.9837 39.8532 11.444 47.4656C8.45427 56.427 7.73933 65.9911 9.36354 75.2974C10.9878 84.6037 14.9001 93.3602 20.7487 100.779C26.5973 108.198 34.1985 114.046 42.8685 117.798C51.5385 121.55 61.0053 123.088 70.417 122.272C79.8288 121.457 88.8902 118.315 96.7861 113.128C104.682 107.942 111.164 100.874 115.65 92.5597C119.461 85.4974 121.729 77.7244 122.326 69.7536C122.502 67.4088 124.391 65.5 126.743 65.5Z" stroke="#184BFE" stroke-width="62" stroke-linecap="round" mask="url(#path-2-inside-2_329_2105)"/>
<path d="M35.2055 70.504V66.652H41.9735V60.424H45.8975V66.652H52.6295V70.504H45.8975V76.732H41.9735V70.504H35.2055ZM66.1539 79.432C64.3059 79.432 62.7099 79.108 61.3659 78.46C60.0459 77.812 59.0019 76.924 58.2339 75.796C57.4899 74.644 57.0579 73.348 56.9379 71.908H61.4379C61.6539 72.94 62.1819 73.804 63.0219 74.5C63.8619 75.172 64.9059 75.508 66.1539 75.508C67.4979 75.508 68.5899 75.016 69.4299 74.032C70.2939 73.048 70.7259 71.824 70.7259 70.36C70.7259 68.848 70.2939 67.648 69.4299 66.76C68.5899 65.872 67.5219 65.428 66.2259 65.428C65.1459 65.428 64.2099 65.692 63.4179 66.22C62.6259 66.748 62.0619 67.408 61.7259 68.2H57.2979L59.4579 53.8H73.4259V57.832H62.9139L61.7619 63.664C62.2899 63.088 63.0099 62.62 63.9219 62.26C64.8339 61.876 65.8539 61.684 66.9819 61.684C68.7819 61.684 70.2819 62.092 71.4819 62.908C72.6819 63.7 73.5939 64.756 74.2179 66.076C74.8419 67.372 75.1539 68.788 75.1539 70.324C75.1539 72.076 74.7699 73.636 74.0019 75.004C73.2579 76.372 72.2019 77.452 70.8339 78.244C69.4899 79.036 67.9299 79.432 66.1539 79.432ZM88.9101 79.432C87.0141 79.432 85.4181 79.084 84.1221 78.388C82.8261 77.692 81.7821 76.756 80.9901 75.58C80.1981 74.404 79.6221 73.096 79.2621 71.656C78.9261 70.216 78.7581 68.74 78.7581 67.228C78.7581 64.42 79.1541 61.984 79.9461 59.92C80.7381 57.832 81.8781 56.224 83.3661 55.096C84.8541 53.944 86.6541 53.368 88.7661 53.368C90.4941 53.368 91.9581 53.716 93.1581 54.412C94.3821 55.084 95.3301 55.972 96.0021 57.076C96.6741 58.18 97.0701 59.368 97.1901 60.64H92.9061C92.6901 59.536 92.2221 58.684 91.5021 58.084C90.7821 57.484 89.8581 57.184 88.7301 57.184C87.1221 57.184 85.8261 57.928 84.8421 59.416C83.8581 60.88 83.3301 63.124 83.2581 66.148C83.8341 65.164 84.6981 64.348 85.8501 63.7C87.0021 63.052 88.2861 62.728 89.7021 62.728C91.0941 62.728 92.4021 63.064 93.6261 63.736C94.8501 64.408 95.8341 65.356 96.5781 66.58C97.3461 67.804 97.7301 69.244 97.7301 70.9C97.7301 72.412 97.3581 73.816 96.6141 75.112C95.8941 76.408 94.8621 77.452 93.5181 78.244C92.1981 79.036 90.6621 79.432 88.9101 79.432ZM88.6581 75.472C90.0021 75.472 91.1061 75.064 91.9701 74.248C92.8581 73.408 93.3021 72.352 93.3021 71.08C93.3021 69.736 92.8581 68.656 91.9701 67.84C91.0821 67.024 89.9541 66.616 88.5861 66.616C87.6981 66.616 86.8941 66.82 86.1741 67.228C85.4781 67.612 84.9261 68.14 84.5181 68.812C84.1101 69.46 83.9061 70.192 83.9061 71.008C83.9061 72.304 84.3501 73.372 85.2381 74.212C86.1501 75.052 87.2901 75.472 88.6581 75.472Z" fill="white"/>
</svg>
