<svg xmlns="http://www.w3.org/2000/svg" fill="none" viewBox="0 0 400 400" id="Empty-Folder-E-Commerce--Streamline-Brooklyn" height="400" width="400"><desc>Empty Folder E Commerce Streamline Illustration: https://streamlinehq.com</desc><g id="empty-folder-E-commerce--Shopping-empty-folder-E-commerce"><g id="Group"><path id="Vector" fill="#9ca3af" d="M40.24139303482587 203.86288557213933C54.24298507462687 204.06885572139305 78.74567164179105 216.01114427860696 86.77592039800996 219.92338308457713C99.54189054726368 226.1004975124378 102.42427860696519 228.77731343283583 100.98308457711443 235.77791044776117C99.74766169154229 242.36676616915423 96.86487562189055 243.8081592039801 100.36537313432835 246.4849751243781C105.30706467661692 249.98527363184078 174.2849751243781 275.3114427860696 174.2849751243781 275.51741293532336C182.93273631840796 278.81174129353235 182.7265671641791 288.48915422885574 179.02029850746268 297.1371144278607C162.75383084577115 336.0529353233831 155.95940298507463 354.58427860696514 137.22228855721394 384.8521393034826C136.19263681592042 386.4993034825871 136.19263681592042 386.29353233830847 134.54547263681593 385.881592039801C113.74925373134329 380.73412935323387 109.01333333333334 377.02786069651745 91.71741293532338 367.96796019900495C88.21691542288558 366.11482587064677 80.80477611940299 346.76000000000005 78.53970149253732 323.28696517412936C77.92199004975124 317.93353233830845 72.56855721393035 315.6684577114428 68.6563184079602 320.6101492537313C65.56776119402986 324.5223880597015 65.77373134328357 318.75701492537314 61.449751243781094 315.6684577114428C59.802587064676615 314.43303482587066 58.77253731343284 315.25671641791047 57.5371144278607 316.4921393034826C54.65452736318408 318.9629850746269 54.03721393034826 314.02129353233835 52.18407960199005 311.55044776119405C50.742686567164185 309.90328358208956 48.683383084577116 309.6973134328358 47.241990049751244 311.55044776119405C46.21253731343284 312.78587064676617 45.80059701492537 312.5799004975125 45.182885572139305 311.3444776119403C43.12398009950249 307.0204975124378 37.77074626865672 307.6382089552239 36.53532338308458 311.1387064676617C34.88796019900497 316.28616915422884 36.123383084577114 329.0521393034826 36.53532338308458 334.4057711442786C37.15303482587065 341.2005970149254 39.00577114427861 342.4360199004975 35.917412935323384 342.23004975124377C31.799203980099506 341.81830845771145 19.03323383084577 334.4057711442786 15.326965174129354 331.9349253731344C8.532139303482587 327.4049751243781 4.208159203980099 324.93412935323386 4.0023880597014925 318.1393034825871C3.796417910447761 306.40278606965177 17.79820895522388 250.19124378109456 27.475621890547263 222.8059701492537C32.41731343283582 208.59860696517416 32.623084577114426 203.65691542288556 40.24159203980099 203.86288557213933ZM114.16059701492537 275.3114427860696C114.16059701492537 278.81174129353235 116.4260696517413 279.0177114427861 133.10407960199004 286.01850746268656C159.45990049751245 296.93134328358207 160.4891542288557 297.7548258706468 162.75402985074626 295.2839800995025C168.72537313432835 288.48915422885574 172.63741293532337 286.2242786069652 160.69512437810945 282.92995024875626C130.8390049751244 274.28199004975124 115.19004975124379 262.54547263681593 114.16059701492537 275.3114427860696ZM113.74905472636817 285.19482587064675C111.89592039800995 284.988855721393 110.2489552238806 288.48915422885574 113.54328358208956 289.9305472636816C113.54328358208956 289.9305472636816 141.54626865671642 302.0788059701493 154.72398009950248 305.37333333333333C156.78308457711444 305.99104477611945 156.78288557213932 305.99104477611945 158.01830845771144 304.3438805970149C159.04776119402985 302.90248756218904 158.84179104477613 301.87303482587066 157.40039800995024 301.04935323383086C151.84099502487564 298.57850746268656 120.33791044776119 286.01850746268656 113.74905472636817 285.19482587064675Z" stroke-width="1"></path><path id="Vector_2" fill="#9ca3af" d="M181.28517412935324 308.4618905472637C193.84537313432838 333.1703482587065 204.14049751243783 352.1134328358209 225.96616915422885 367.35024875621895C243.2620895522388 379.49870646766175 264.2642786069652 386.0875621890547 285.6782089552239 386.9112437810945C350.94965174129356 389.79383084577114 399.9548258706468 329.8758208955224 390.89492537313436 265.0163184079602C383.07064676616915 209.62825870646768 320.06407960199004 163.91781094527363 263.44079601990046 163.09412935323385C257.6754228855721 163.09412935323385 243.46805970149254 160.2115422885572 239.76179104477612 157.5347263681592C237.4969154228856 155.88756218905473 229.46666666666667 141.26845771144278 225.1426865671642 127.06109452736318C220.40696517412934 112.03004975124378 217.73014925373135 108.73572139303482 218.55383084577116 104.61751243781096C219.58328358208954 99.26407960199006 223.28955223880598 98.44039800995024 224.52497512437813 87.9395024875622C225.5544278606965 80.73273631840796 216.4947263681592 81.76218905472638 212.37671641791047 89.38049751243781C209.69990049751246 94.5281592039801 202.49333333333334 94.52835820895523 199.404776119403 89.58666666666667C198.5812935323383 88.35124378109454 198.16935323383086 86.90985074626865 197.75741293532337 85.46865671641791C194.05114427860698 87.9395024875622 190.13890547263682 87.93970149253732 186.2266666666667 86.70427860696518C178.19641791044776 84.2334328358209 180.04995024875623 76.20318407960198 181.4913432835821 68.58467661691542C174.284776119403 72.70268656716418 167.90169154228855 72.29074626865672 162.34228855721392 65.90766169154229C158.22427860696519 77.64417910447762 147.31124378109453 77.43860696517413 142.36955223880597 70.2318407960199C141.5460696517413 71.8792039800995 140.92796019900499 73.52597014925374 139.89830845771147 74.9673631840796C135.36855721393036 81.76218905472638 128.57373134328358 82.58567164179104 122.3966169154229 77.02626865671643C118.8963184079602 86.08616915422886 124.04398009950249 98.44039800995024 123.01452736318407 98.8523383084577C122.60278606965174 99.05830845771145 121.36756218905474 96.99940298507462 121.161592039801 95.96995024875622C120.54388059701493 93.70487562189055 113.33671641791045 95.9697512437811 107.98328358208956 88.9689552238806C104.27701492537314 84.23323383084576 105.92477611940299 80.3207960199005 109.83681592039801 75.99681592039802C111.68995024875622 73.93771144278607 102.83621890547263 71.46706467661691 102.6302487562189 56.64199004975124C102.42427860696519 46.96457711442786 110.0423880597015 41.405174129353234 119.30805970149254 39.14029850746269C121.36716417910448 38.728557213930344 121.36756218905474 38.52258706467662 121.161592039801 36.46348258706468C119.72019900497513 23.697512437810946 133.30985074626867 15.2555223880597 146.48776119402987 21.638407960199007C147.10547263681593 21.844378109452737 147.72278606965173 22.87363184079602 148.13452736318408 22.461890547263682C148.54626865671642 22.255920398009952 148.54666666666668 21.432835820895523 148.9586069651741 20.815124378109452C155.54746268656717 7.84318407960199 172.43144278606965 5.990049751243781 178.1966169154229 17.726567164179105C180.46149253731343 22.46228855721393 180.25592039800995 22.46228855721393 180.873631840796 21.844577114427864C184.16796019900497 17.108855721393038 190.9623880597015 18.54985074626866 195.4923383084577 21.020696517412937C200.4342288557214 23.903482587064676 198.78706467661692 28.021492537313435 200.22825870646767 27.8155223880597C204.55223880597015 26.992039800995023 208.67044776119403 28.43323383084577 212.37671641791047 30.28636815920398C218.14189054726367 33.37492537313433 214.8475621890547 42.023084577114425 215.4652736318408 42.84676616915423C215.87701492537315 43.4644776119403 221.84815920398012 40.1697512437811 227.61353233830846 46.346865671641794C229.6726368159204 48.61194029850746 228.8489552238806 51.90646766169154 228.0252736318408 54.78925373134329C227.40756218905474 56.642388059701496 230.70208955223882 53.75940298507463 236.05552238805973 60.76019900497513C241.82089552238807 68.17273631840796 241.20318407960198 76.61472636815921 235.2318407960199 82.7918407960199C233.1729353233831 84.85094527363184 231.3198009950249 87.32179104477612 228.43701492537312 88.55721393034825C227.8193034825871 88.76298507462687 227.61353233830846 89.38069651741294 227.40756218905474 90.20437810945273C224.93671641791045 102.55860696517414 219.37731343283582 101.94089552238806 222.46587064676618 109.76517412935323C228.8489552238806 126.23741293532339 231.93751243781094 137.3564179104478 240.58547263681592 152.59343283582092C244.49751243781094 159.59402985074627 262.41114427860697 160.6230845771144 270.4413930348259 160.41731343283584C318.6228855721393 160.2113432835821 376.4817910447761 202.42149253731344 391.3068656716418 248.33810945273632C404.2788059701493 288.90109452736317 390.27721393034824 343.2597014925373 350.33194029850745 370.85074626865674C295.76756218905473 408.53094527363186 211.14129353233832 391.6469651741294 181.69691542288558 313.1976119402985C180.25572139303483 311.55044776119405 180.25572139303483 311.55044776119405 181.28517412935324 308.4618905472637ZM107.57174129353234 57.67164179104478C109.0131343283582 70.64358208955224 119.51383084577115 70.02587064676618 117.2489552238806 67.96676616915423C113.13094527363185 64.46646766169154 111.48378109452737 58.083582089552245 113.33691542288557 53.141890547263685C113.74885572139304 52.11243781094527 114.1607960199005 51.28835820895523 114.57253731343283 50.25890547263681C116.21990049751244 46.14069651741294 107.98348258706467 46.75860696517413 107.57174129353234 57.67164179104478ZM125.27960199004976 34.81611940298508C124.66189054726368 40.58129353233831 130.2210945273632 44.08218905472637 129.1916417910448 41.817313432835824C127.54427860696516 38.11104477611941 128.3681592039801 32.96338308457712 130.0153233830846 29.051144278606966C131.25074626865674 25.96258706467662 125.27960199004976 26.374129353233833 125.27960199004976 34.81611940298508Z" stroke-width="1"></path><path id="Vector_3" fill="#9ca3af" d="M132.48597014925375 229.39502487562189C132.8979104477612 233.71900497512436 127.13253731343283 234.33671641791045 134.5450746268657 253.07383084577114C135.57452736318407 255.75064676616918 136.80975124378108 255.75064676616918 111.68955223880597 246.07303482587065C96.45273631840796 240.30786069651742 113.74865671641793 234.13074626865674 105.51243781094529 224.65910447761195C96.65870646766169 214.3639800995025 79.77452736318408 211.0694527363184 80.39223880597015 209.21631840796022C87.80477611940297 189.45034825870647 92.54049751243782 192.53890547263683 105.51243781094529 196.8628855721393C106.7478606965174 197.27462686567165 126.30865671641791 206.12776119402986 127.7500497512438 206.95144278606966C135.36855721393036 211.27542288557214 130.63283582089554 206.74547263681592 132.48597014925375 229.39502487562189Z" stroke-width="1"></path><path id="Vector_4" fill="#9ca3af" d="M175.72597014925373 313.1976119402985C184.57990049751245 343.2595024875622 190.75681592039803 330.0817910447761 176.96119402985076 350.26029850746266C168.72517412935323 362.2027860696518 155.7534328358209 384.8521393034826 141.7518407960199 386.0875621890547C137.01611940298508 386.7052736318408 145.4581094527363 387.94069651741296 175.72597014925373 313.1976119402985Z" stroke-width="1"></path><path id="Vector_5" fill="#9ca3af" d="M164.81313432835822 215.3934328358209C163.16597014925372 215.3934328358209 149.57611940298509 187.18487562189054 147.72298507462688 183.0668656716418C147.1052736318408 181.83144278606966 147.3110447761194 183.27323383084578 141.5458706467662 185.53810945273634C140.1044776119403 186.1558208955224 141.75203980099502 185.7438805970149 147.5174129353234 201.80398009950247C149.57651741293532 207.36338308457712 142.57572139303483 195.42109452736318 139.28119402985075 187.18487562189054C139.07542288557215 186.56716417910448 138.66348258706466 186.77333333333334 138.25174129353235 186.77333333333334C103.45412935323384 198.921592039801 72.77412935323383 161.65333333333334 91.30547263681592 130.35601990049753C106.54248756218905 104.82388059701492 141.13412935323382 102.76497512437811 157.6065671641791 124.17890547263683C169.34288557213932 139.62169154228854 168.72517412935323 156.0937313432836 160.0774129353234 169.88915422885572C153.9002985074627 179.77253731343285 148.34089552238808 180.3902487562189 149.37034825870646 182.24338308457712C153.9002985074627 190.273631840796 161.93054726368158 206.74547263681592 164.81313432835822 215.3934328358209ZM141.13412935323382 183.0668656716418C156.57691542288558 176.06606965174132 166.25452736318408 159.1820895522388 163.37174129353235 141.88616915422884C160.69512437810945 125.82567164179105 145.4581094527363 111.00099502487562 126.30905472636816 111.82467661691543C107.36597014925373 112.6481592039801 91.71741293532338 126.0318407960199 88.62885572139304 144.56298507462685C83.89293532338309 172.77194029850745 112.71960199004975 196.03880597014927 141.13412935323382 183.0668656716418Z" stroke-width="1"></path><path id="Vector_6" fill="#9ca3af" d="M205.37592039800998 157.74089552238806C196.93373134328357 165.56517412935324 193.02169154228855 164.1239800995025 194.2571144278607 165.9771144278607C197.13970149253734 171.33054726368158 197.34567164179106 180.59621890547265 196.727960199005 186.97930348258706C195.9042786069652 196.4507462686567 201.87562189054725 206.33373134328357 215.25930348258706 208.59860696517416C235.43781094527364 212.09910447761195 252.93970149253732 187.18507462686568 253.35144278606967 166.38885572139304C253.35144278606967 166.1828855721393 253.14547263681592 165.77094527363184 253.55741293532338 165.77094527363184S253.96915422885573 165.9771144278607 253.96915422885573 166.38885572139304C259.3225870646766 183.27303482587067 238.11462686567165 217.2465671641791 212.7884577114428 211.27542288557214C200.4342288557214 208.39283582089553 194.25731343283582 199.53910447761194 193.84557213930347 190.89114427860696C193.63960199004975 185.74368159203982 196.11044776119405 177.30149253731344 192.81592039800995 166.8005970149254C192.1982089552239 164.74149253731343 188.9034825870647 168.8595024875622 177.5787064676617 168.24179104477614C167.90129353233831 167.83004975124376 162.13592039800994 163.09432835820894 171.401592039801 165.15323383084578C183.13810945273633 167.62407960199005 197.34567164179106 163.29990049751245 205.993631840796 153.21074626865672C210.52338308457712 147.8571144278607 214.43562189054728 137.15044776119402 215.46507462686566 133.85592039800997C216.7004975124378 129.32616915422886 217.5241791044776 146.4163184079602 205.37592039800998 157.74089552238806Z" stroke-width="1"></path><path id="Vector_7" fill="#9ca3af" d="M196.93412935323383 259.6626865671642C193.2278606965174 270.98746268656714 187.87383084577115 274.6937313432836 184.16756218905473 278.81174129353235C183.7558208955224 279.2236815920398 183.75601990049753 279.0177114427861 183.34427860696516 278.6059701492538C182.5205970149254 277.57631840796023 182.72676616915425 276.9586069651741 183.5502487562189 276.1351243781095C197.55184079601992 262.95721393034825 193.02149253731343 255.54467661691544 198.58089552238806 258.8392039800995C245.93890547263683 286.2242786069652 326.65313432835825 292.4013930348259 326.65313432835825 292.8131343283582C326.4471641791045 297.9607960199005 229.46666666666667 283.3416915422886 196.93412935323383 259.6626865671642Z" stroke-width="1"></path><path id="Vector_8" fill="#9ca3af" d="M41.27104477611941 312.3741293532338C47.03621890547264 311.7564179104478 31.387661691542288 366.73253731343283 80.3926368159204 368.1739303482587C82.45174129353235 368.1739303482587 84.09870646766169 367.35024875621895 84.30467661691543 367.7621890547264C85.54009950248756 371.05651741293536 61.44935323383085 374.55701492537315 47.85970149253731 356.4374129353234C36.53492537313433 341.6123383084577 39.417910447761194 312.3741293532338 41.27104477611941 312.3741293532338Z" stroke-width="1"></path><path id="Vector_9" fill="#9ca3af" d="M290.61990049751245 223.2179104477612C292.0612935323383 225.6887562189055 298.0324378109453 265.2220895522388 290.20815920398013 282.9297512437811C290.0021890547264 283.3416915422886 289.79641791044776 284.16517412935326 289.1787064676617 283.95940298507463C287.5313432835821 283.54746268656714 289.79641791044776 280.2531343283582 291.03184079601994 264.3986069651741C291.85532338308457 250.19124378109456 290.20815920398013 229.80676616915426 290.61990049751245 223.21771144278608Z" stroke-width="1"></path><path id="Vector_10" fill="#9ca3af" d="M171.81333333333336 214.3639800995025C172.84298507462688 213.7462686567164 175.93174129353233 216.42308457711442 176.75522388059701 217.2465671641791C186.84457711442786 228.15960199004977 194.05094527363184 238.04278606965175 191.37432835820894 252.45611940298508C190.13890547263682 258.8392039800995 187.87402985074627 257.80955223880596 188.08 256.3683582089552C188.69771144278607 249.77930348258707 190.55104477611943 242.36676616915423 184.57990049751245 232.68935323383084C176.34368159203981 219.92338308457713 172.2252736318408 215.3934328358209 171.81333333333336 214.3639800995025Z" stroke-width="1"></path><path id="Vector_11" fill="#9ca3af" d="M58.56676616915423 354.1725373134328C58.56676616915423 358.9082587064677 49.9192039800995 351.2897512437811 48.68378109452736 330.49353233830846C47.860099502487564 316.69810945273633 49.91900497512438 314.22726368159204 50.53671641791045 316.69810945273633C51.9779104477612 324.7283582089552 51.15422885572139 327.4049751243781 54.44855721393035 341.81830845771145C55.68398009950249 347.17174129353236 57.74308457711442 351.49572139303484 58.56676616915423 354.1725373134328Z" stroke-width="1"></path><path id="Vector_12" fill="#9ca3af" d="M62.2726368159204 322.05154228855724C63.0963184079602 343.87721393034826 65.97890547263682 346.76000000000005 67.83203980099502 355.20199004975126C68.03800995024876 356.025671641791 66.3910447761194 358.0845771144279 64.5379104477612 353.96656716417914C56.71363184079602 337.9060696517413 59.80238805970149 317.52159203980096 62.067263681592046 318.3452736318408C62.47900497512438 318.5512437810945 62.47880597014926 318.9629850746269 62.47880597014926 319.1689552238806C62.067064676616916 320.198407960199 62.27283582089553 321.22786069651744 62.27283582089553 322.05154228855724Z" stroke-width="1"></path><path id="Vector_13" fill="#9ca3af" d="M74.00935323383085 321.63980099502487C74.83303482587066 321.63980099502487 73.80378109452737 337.7002985074627 78.74547263681592 353.7605970149254C79.363184079602 356.025671641791 81.01054726368159 360.1436815920398 79.56915422885572 360.76139303482586C77.71601990049751 361.3791044776119 75.65671641791045 354.37830845771146 75.03900497512437 352.5251741293532C70.50905472636816 338.7297512437811 72.5681592039801 321.4338308457711 74.00935323383085 321.63980099502487Z" stroke-width="1"></path><path id="Vector_14" fill="#9ca3af" d="M139.89810945273632 212.5108457711443C137.22149253731345 234.7484577114428 141.33970149253733 240.71960199004977 150.39940298507463 253.27980099502489C150.8113432835821 253.89751243781095 150.39960199004975 254.51522388059703 149.57611940298509 254.10328358208955C146.89930348258707 252.6620895522388 138.86905472636818 243.19044776119404 137.22189054726368 232.2776119402985C135.7804975124378 222.18825870646768 138.45691542288557 213.12855721393035 139.89810945273632 212.5108457711443Z" stroke-width="1"></path><path id="Vector_15" fill="#9ca3af" d="M191.5804975124378 181.83184079601992C188.49194029850747 185.12636815920396 177.99064676616914 188.62646766169155 171.40179104477613 191.50905472636816C158.84179104477613 197.2744278606965 159.04776119402985 197.48019900497513 158.63601990049753 197.0684577114428C157.81233830845773 195.42129353233832 198.78726368159207 174.21333333333334 191.5804975124378 181.83184079601992Z" stroke-width="1"></path><path id="Vector_16" fill="#9ca3af" d="M144.63442786069652 211.8931343283582C145.04616915422886 240.92557213930348 160.0776119402985 240.10189054726368 158.8421890547264 242.77870646766172C157.4007960199005 245.86726368159205 138.04537313432837 231.24815920398012 143.604776119403 213.7462686567164C143.81074626865671 212.92258706467663 144.01671641791043 212.30487562189055 144.63442786069652 211.8931343283582Z" stroke-width="1"></path><path id="Vector_17" fill="#9ca3af" d="M148.34049751243782 210.65771144278608C155.54706467661694 234.9544278606965 169.34268656716418 230.83621890547263 168.5192039800995 233.924776119403C168.31323383084577 234.9544278606965 167.28378109452737 234.54248756218908 166.46009950248757 234.33671641791045C158.841592039801 232.07164179104478 152.6644776119403 228.15960199004977 149.57592039800997 220.33512437810947C148.75243781094525 217.86427860696517 146.89910447761196 212.92258706467663 148.34029850746268 210.65771144278608Z" stroke-width="1"></path><path id="Vector_18" fill="#9ca3af" d="M175.93154228855724 140.85691542288558C176.34328358208955 135.50328358208955 190.9623880597015 123.76676616915422 191.99203980099503 125.41412935323383C192.40378109452737 126.0318407960199 186.02089552238806 132.41492537313434 184.3737313432836 134.06228855721392C180.25572139303483 138.18029850746268 178.81432835820897 140.8571144278607 177.78487562189056 142.09253731343284C177.16716417910447 142.9160199004975 175.93154228855724 142.7100497512438 175.93154228855724 140.85691542288558Z" stroke-width="1"></path><path id="Vector_19" fill="#9ca3af" d="M144.42885572139303 259.86865671641795C140.92855721393033 258.4272636815921 140.72258706467662 258.4272636815921 140.3108457711443 257.80955223880596C138.4577114427861 253.27980099502489 134.33930348258707 240.92557213930348 134.95701492537313 236.39562189054726C135.16298507462687 235.36616915422886 136.398407960199 235.16019900497514 136.60437810945274 236.18965174129355C139.48696517412938 249.77930348258707 140.92855721393033 252.6620895522388 144.42885572139303 259.86865671641795Z" stroke-width="1"></path><path id="Vector_20" fill="#9ca3af" d="M160.076815920398 93.29293532338309C158.42965174129353 93.29293532338309 158.22388059701493 91.85174129353234 159.25353233830847 90.82228855721392C162.95980099502486 87.52776119402985 164.195223880597 86.29194029850747 167.48955223880597 81.1444776119403C176.75522388059701 66.52517412935323 167.90129353233831 92.88119402985075 160.076815920398 93.29293532338309Z" stroke-width="1"></path><path id="Vector_21" fill="#9ca3af" d="M125.89751243781095 104.00039800995025C124.45611940298508 99.88218905472638 128.1623880597015 93.29333333333334 132.48636815920398 91.64616915422886C135.78089552238805 90.41074626865671 141.1339303482587 91.64616915422886 140.9281592039801 93.29333333333334C140.72218905472639 94.32278606965174 139.2809950248756 94.32258706467663 138.45751243781095 94.11681592039801C131.45671641791046 92.67542288557215 127.13253731343283 99.88199004975125 126.51482587064677 103.38228855721393C126.30885572139303 103.58825870646767 126.30945273631842 103.79442786069652 125.89751243781095 104.00019900497513Z" stroke-width="1"></path><path id="Vector_22" fill="#9ca3af" d="M175.31442786069653 108.11800995024876C175.31442786069653 109.55920398009951 175.31422885572138 110.79462686567165 174.07880597014926 111.20656716417912C172.84338308457714 111.82427860696517 171.81353233830845 111.20676616915424 170.78407960199007 110.38308457711443C166.46009950248757 106.88278606965174 169.13691542288558 100.49970149253731 172.4312437810945 103.17651741293533C174.07860696517415 104.8236815920398 175.31442786069653 106.26487562189055 175.31442786069653 108.11800995024876Z" stroke-width="1"></path><path id="Vector_23" fill="#9ca3af" d="M152.66487562189056 112.02985074626866C152.66487562189056 112.44179104477612 152.66467661691541 113.05970149253731 152.04696517412935 113.26547263681593C151.42925373134327 113.47144278606964 151.22308457711443 112.85393034825871 150.8113432835821 112.44218905472637C142.7810945273632 95.35223880597015 151.2234825870647 103.38189054726368 152.66487562189056 112.02985074626866Z" stroke-width="1"></path><path id="Vector_24" fill="#9ca3af" d="M89.04019900497512 158.3582089552239C80.59820895522388 125.6195024875622 121.98507462686567 97.20477611940298 149.5763184079602 119.2366169154229C184.57990049751245 147.0334328358209 149.78189054726369 200.56855721393038 109.21890547263682 183.27283582089552C108.80716417910449 183.0668656716418 108.60139303482588 183.06666666666666 108.39562189054728 182.65492537313432C108.8073631840796 180.80179104477614 109.63064676616915 178.94885572139304 109.63064676616915 177.09572139303484C109.63064676616915 176.68378109452738 109.83641791044776 176.4782089552239 110.0423880597015 176.27223880597018C116.63124378109453 179.3607960199005 115.39621890547265 178.33114427860698 120.74985074626866 179.7723383084577C120.13213930348259 181.00776119402985 119.71980099502487 181.62547263681594 120.95522388059702 181.83144278606966C151.0171144278607 185.33174129353233 171.60756218905473 151.3576119402985 151.22308457711443 128.09034825870646C135.36855721393036 109.97094527363184 104.89472636815921 114.70706467661692 95.21731343283582 140.23920398009952C94.8055721393035 141.2686567164179 95.62925373134328 141.2686567164179 96.86467661691543 141.2686567164179C96.04119402985074 146.82805970149252 95.0113432835821 149.09273631840796 96.65870646766169 158.56437810945275C96.04099502487561 157.74069651741294 95.21751243781095 157.53452736318408 94.39383084577113 157.94646766169154C92.54069651741294 158.7699502487562 90.89333333333335 158.3582089552239 89.04019900497512 158.3582089552239Z" stroke-width="1"></path><path id="Vector_25" fill="#9ca3af" d="M120.74965174129353 180.1844776119403C145.66407960199007 183.27303482587067 162.54825870646766 159.59402985074627 155.7534328358209 140.03323383084577C145.87004975124378 111.20676616915424 106.13014925373135 113.26567164179104 96.65870646766169 141.68039800995027C95.42328358208955 141.47462686567164 94.6 141.68039800995027 95.01174129353234 140.65094527363183C104.68935323383084 115.11880597014925 135.16298507462687 110.3828855721393 151.01751243781095 128.50248756218906C171.40199004975125 151.76955223880597 150.81174129353235 185.94965174129354 120.74965174129353 182.24338308457712C119.72019900497513 181.83164179104477 120.13194029850747 181.2139303482587 120.74965174129353 180.1844776119403Z" stroke-width="1"></path><path id="Vector_26" fill="#9ca3af" d="M110.0423880597015 176.4782089552239C109.42467661691543 177.30169154228855 109.6310447761194 178.33154228855722 108.39562189054728 177.71383084577113C99.95343283582089 172.36019900497513 96.8644776119403 166.18268656716418 94.18786069651742 158.35840796019903C98.51184079601991 155.68159203980102 93.57014925373134 164.94746268656718 110.0423880597015 176.4782089552239Z" stroke-width="1"></path><path id="Vector_27" fill="#9ca3af" d="M128.57373134328358 130.1494527363184C128.57373134328358 125.20776119402986 134.33890547263684 127.06109452736318 135.7802985074627 132.82646766169154C136.80975124378108 137.56218905472636 129.39721393034824 136.53233830845772 128.57373134328358 130.1494527363184Z" stroke-width="1"></path></g></g></svg>