<svg viewBox="0 0 400 400" xmlns="http://www.w3.org/2000/svg" id="Startup-3--Streamline-Brooklyn" height="400" width="400"><desc>Startup 3 Streamline Illustration: https://streamlinehq.com</desc><path d="M377.164 210.154c8.62 0 -124.326 -0.084 -123.914 -0.032 -0.6 -0.126 -0.854 0.79 -0.254 0.916 1.02 0.186 122.898 0.42 124.262 -0.126 0.696 0 0.432 -0.89 -0.094 -0.758Z" fill="#9ca3af" stroke-width="1"></path><path d="M269.022 205.2c-0.028 0.478 0.76 0.494 0.76 -0.158 0.488 -1.466 0.282 -32.032 0.222 -32.716 1.156 0.108 1.214 0.034 9.04 0.094 0 0 -0.19 29.968 -0.158 31.042 0 0.57 0.094 1.17 0.062 1.738 -0.03 0.474 0.696 0.444 0.728 0 0 0.156 0.064 -0.306 0.064 -0.474 0.51 -5.11 0.188 -27.86 0.188 -32.6a0.34 0.34 0 0 0 0 -0.474 1.772 1.772 0 0 0 -1.326 -0.286c-0.2 0 -8.018 0.072 -8.852 0.19 -0.218 -0.174 -0.538 -0.046 -0.538 0.38 -0.2 1.2 -0.29 31.346 -0.284 31.548a9.6 9.6 0 0 1 0.094 1.716Z" fill="#9ca3af" stroke-width="1"></path><path d="M291.878 204.812c-0.032 0.474 0.696 0.442 0.726 0 0 0.062 0 -0.032 0.032 -0.126 0 -0.064 0 -0.128 0.032 -0.158 0.412 -1.64 0.158 -30.278 0.158 -41.6 1.128 0.1 9.306 0.064 9.104 0.064 -0.076 0.526 -0.172 42.028 -0.158 41.822 -0.032 0.474 0.696 0.442 0.728 0 0 0.062 0 -0.064 0.03 -0.126a0.4 0.4 0 0 1 0.032 -0.19c0.4 -1.6 0.2 -41.32 0.126 -41.8l0.032 -0.032a0.344 0.344 0 0 0 0 -0.474 1.93 1.93 0 0 0 -1.328 -0.284c-0.2 0 -7.87 0.078 -8.788 0.22a0.282 0.282 0 0 0 -0.506 0.096c0 0.208 -0.344 44.436 -0.22 42.588Z" fill="#9ca3af" stroke-width="1"></path><path d="M315.522 204.812c-0.032 0.474 0.696 0.474 0.728 0a14.816 14.816 0 0 0 0.158 -2.276c0.252 -5.534 0.09 -49.38 0.032 -49.852 0.834 0.074 0.636 0.064 9.104 0.064 0 0.374 -0.096 0.48 -0.096 0.758v51.306a0.332 0.332 0 1 0 0.664 0 51.874 51.874 0 0 0 0.316 -6.48c0.18 -11.512 -0.236 -45.9 -0.032 -45.9a0.34 0.34 0 0 0 0 -0.474c-0.586 -0.4 0.026 -0.32 -8.85 -0.158a8.244 8.244 0 0 0 -1.232 0.094 0.294 0.294 0 0 0 -0.538 0.032c0 0.164 -0.12 0.18 -0.064 0.348 -0.244 1.228 -0.202 52.742 -0.19 52.538Z" fill="#9ca3af" stroke-width="1"></path><path d="M339.926 204.6v0.158c-0.032 0.474 0.696 0.474 0.728 0v-0.19a0.574 0.574 0 0 1 0.03 -0.222c0.4 -2.362 0.2 -58.264 0.128 -58.922 1.132 0.1 9.306 0.064 9.104 0.064a2.694 2.694 0 0 1 -0.112 0.568v58.67a0.34 0.34 0 1 0 0.68 0v-0.19a0.684 0.684 0 0 1 0.032 -0.252c0.358 -2.15 0.262 -58.49 0.126 -58.892V145.2c0.126 0 0.25 -0.322 0.064 -0.506a0.662 0.662 0 0 0 -0.19 -0.128 9.232 9.232 0 0 0 -3.446 -0.094 58.874 58.874 0 0 0 -6.448 0.19c-0.064 -0.254 -0.506 -0.254 -0.538 0 0 0.116 -0.112 0.28 -0.062 0.38 -0.136 0.814 -0.302 57 -0.222 59.332 0.126 0.09 0.126 0.152 0.126 0.226Z" fill="#9ca3af" stroke-width="1"></path><path d="M341.318 129.134a38.532 38.532 0 0 0 -8.062 -1 0.386 0.386 0 0 0 -0.094 0.758 55.454 55.454 0 0 0 7.492 1.358 115.15 115.15 0 0 1 -11.348 7.304c-23.954 13.612 -49.148 17.518 -58.924 19.85 -0.568 0.128 -0.316 0.918 0.222 0.822 2.528 -0.348 5.058 -0.884 7.554 -1.422C298.312 152.512 318.412 146 335.6 134.92c2.028 -1.282 4.966 -3.346 5.6 -3.826 -0.054 0.384 0 0.48 -0.316 2.782 -0.188 1.422 -0.536 2.814 -0.694 4.236 -0.064 0.696 1 0.79 1.2 0.158a50.116 50.116 0 0 0 1.044 -6.986c0.166 -1.884 0.396 -1.96 -1.116 -2.15Z" fill="#9ca3af" stroke-width="1"></path><path d="M388.734 48.842a0.696 0.696 0 0 0 -0.79 -0.6c-0.2 0 -354.44 0.814 -354.644 0.916a0.6 0.6 0 0 0 -1.074 0.38c0 2.458 1.054 188.898 0.916 190.266 -0.032 0.854 1.296 0.854 1.36 0 0.262 -4.926 0.266 -5.318 -0.98 -189.35 4.138 0.06 353.536 -1.042 353.916 -1.042 0 9.52 1.044 188.296 0.916 189.57 -0.03 0.854 1.296 0.854 1.36 0 0.926 -17.406 -0.954 -189.882 -0.98 -190.14Z" fill="#9ca3af" stroke-width="1"></path><path d="M95.8 228.14a0.628 0.628 0 0 0 -0.384 -0.4 77.314 77.314 0 0 0 -6.268 -14.626c0.754 -1.27 0.542 -10.4 0.362 -12.754a0.65 0.65 0 0 0 -0.8 -0.6c-10.024 1.786 -20.89 5.564 -27.66 13.182a4.016 4.016 0 0 0 -1.2 1.706c-0.158 0.758 0.38 1.612 0.632 2.31a117.876 117.876 0 0 0 6 12.864 0.352 0.352 0 0 0 0.28 0.168c-1.924 3.444 0.8 8.4 4.114 8.4 0.062 0.632 0.316 1.264 0.41 1.866 0.6 3.308 -0.668 5.168 -0.38 6.226a0.374 0.374 0 0 0 0.538 0.222c1.532 -1.07 1.358 -6.8 0.568 -8.472a5.212 5.212 0 0 0 3.036 -2.15 0.448 0.448 0 0 0 -0.474 -0.662c-1.146 0.294 -3.736 3.616 -6.228 0.062 -2.044 -2.898 -0.632 -6.4 1.706 -6.26a5.272 5.272 0 0 1 1.518 0.476c0.2 0.066 1.188 -0.27 1.2 -0.8 0.064 -2.6 0.472 -5.188 0.696 -7.776 0.068 -0.8 -0.126 -1.01 0.568 -1.358a150.382 150.382 0 0 1 14.46 -6.072c0.518 1.254 1.736 3.698 1.946 4.334a2.832 2.832 0 0 0 -2.496 0.6 0.418 0.418 0 0 0 0.4 0.696 3.23 3.23 0 0 1 1.928 -0.032c0.188 0.038 0.462 0.078 0.6 -0.062a90.268 90.268 0 0 1 3.368 9.104 15.674 15.674 0 0 1 -18.16 2.118c-1.02 -1.018 -1.776 0.058 -1.138 0.694a12.882 12.882 0 0 1 3.476 6.102c0.354 1.496 0.066 2.486 1.454 2.97a26.2 26.2 0 0 0 7.532 1.632c-0.072 0.762 0.232 2.742 0.908 3.176 0.222 0.124 0.6 0.03 0.632 -0.254 0.098 -0.58 -0.482 -1.524 -0.662 -2.896 5.718 -0.04 10.06 -5.352 7.518 -13.734Zm-4.298 8.536a2.34 2.34 0 0 1 -2.56 0.442 2.504 2.504 0 0 1 -1.456 -2.022c0 -0.254 0.318 -0.382 0.444 -0.254 0.568 0.57 0.98 1.532 1.928 1.518s1.488 -1.036 1.866 -1.328c0.71 -0.56 1.076 0.588 -0.228 1.644Z" fill="#9ca3af" stroke-width="1"></path><path d="M89.504 225.612a8.656 8.656 0 0 1 0.886 2.15c0 0.618 -1.312 0.738 -1.93 0.694 -0.308 0 -0.718 0.354 -0.568 0.728a0.612 0.612 0 0 0 0.538 0.4 3.2 3.2 0 0 0 2.782 -0.884c0.632 -0.854 0.062 -1.93 -0.318 -2.782a14.132 14.132 0 0 0 -3.572 -5.058c-0.284 -0.222 -0.758 0.062 -0.536 0.4a36.456 36.456 0 0 1 2.718 4.352Z" fill="#9ca3af" stroke-width="1"></path><path d="M80.97 223.526a4.614 4.614 0 0 1 0.824 -1.2c0.336 -0.308 0.534 -0.264 0.844 -0.698 0.484 -0.68 -0.238 -0.988 -0.684 -0.87a3.154 3.154 0 0 0 -1.776 2.126c-0.15 0.758 0.574 1.074 0.792 0.642Z" fill="#9ca3af" stroke-width="1"></path><path d="M28.178 261.87a8.246 8.246 0 0 0 1.55 -4.522 28.212 28.212 0 0 0 -1.58 -4.772 9.466 9.466 0 0 1 0.378 -5.122c0.032 -0.316 -0.41 -0.442 -0.6 -0.252a5.282 5.282 0 0 0 -1.044 3.952c0.142 3.244 2.726 5.294 1.454 8.218a28.562 28.562 0 0 0 -1.706 3.572c-0.316 1.106 -0.348 2.876 0.884 3.478a0.304 0.304 0 0 0 0.412 -0.412 3.86 3.86 0 0 1 0.252 -4.14Z" fill="#9ca3af" stroke-width="1"></path><path d="M22.426 247.454c0.09 0.634 0.062 1.518 0.536 2a0.474 0.474 0 0 0 0.76 -0.19c0.294 -0.712 -0.268 -1.57 -0.38 -4.046 -0.094 -1.36 -0.126 -2.75 -0.19 -4.11 -0.03 -0.378 -0.6 -0.474 -0.664 -0.094a23.084 23.084 0 0 0 -0.062 6.44Z" fill="#9ca3af" stroke-width="1"></path><path d="M18.854 249.446a2.338 2.338 0 0 0 0.506 1.296 0.428 0.428 0 0 0 0.726 -0.19 2.388 2.388 0 0 0 -0.062 -1.328 63.128 63.128 0 0 1 -0.95 -9.736c-0.03 -0.348 -0.568 -0.474 -0.632 -0.094a28.35 28.35 0 0 0 0.412 10.052Z" fill="#9ca3af" stroke-width="1"></path><path d="M14.8 249.32c0.19 0.632 0.284 1.58 0.98 1.864a0.364 0.364 0 0 0 0.442 -0.188c0.49 -0.882 -0.71 -1.57 -1.77 -8.536 -0.064 -0.442 -0.822 -0.348 -0.8 0.096a31.454 31.454 0 0 0 1.148 6.764Z" fill="#9ca3af" stroke-width="1"></path><path d="M16.8 265c-3.67 -6 -4.4 -12.032 -6.036 -18.492 -0.096 -0.4 -0.8 -0.316 -0.728 0.096a48.4 48.4 0 0 0 5.248 18.144c0.442 0.8 0.98 1.58 1.422 2.37 0.94 1.612 0.858 1.944 1.36 2.214a0.43 0.43 0 0 0 0.6 -0.254c0.318 -0.75 -0.432 -1.732 -1.866 -4.078Z" fill="#9ca3af" stroke-width="1"></path><path d="M14.744 254.124a0.264 0.264 0 0 0 0.316 0.412c5.496 -2.812 7.16 -1.336 8.756 -1.612 0.348 -0.064 0.316 -0.506 0.096 -0.696 -1.172 -0.892 -6.366 -0.904 -9.168 1.896Z" fill="#9ca3af" stroke-width="1"></path><path d="M286.504 257.538a7.852 7.852 0 0 0 1.496 -4.298 26.424 26.424 0 0 0 -1.486 -4.552 9.256 9.256 0 0 1 0.38 -4.868c0.03 -0.316 -0.38 -0.412 -0.57 -0.222a5.064 5.064 0 0 0 -0.98 3.762c0.138 3.058 2.556 5 1.39 7.776a30.092 30.092 0 0 0 -1.61 3.382c-0.286 1.044 -0.348 2.75 0.82 3.32a0.28 0.28 0 0 0 0.38 -0.38 3.82 3.82 0 0 1 0.18 -3.92Z" fill="#9ca3af" stroke-width="1"></path><path d="M281 243.85c0.074 0.6 0.062 1.456 0.506 1.898a0.444 0.444 0 0 0 0.726 -0.19 3.748 3.748 0 0 0 -0.158 -1.866 51.85 51.85 0 0 1 -0.378 -5.878c-0.032 -0.348 -0.57 -0.476 -0.634 -0.096a21.43 21.43 0 0 0 -0.062 6.132Z" fill="#9ca3af" stroke-width="1"></path><path d="M277.622 245.748a2.456 2.456 0 0 0 0.474 1.232 0.424 0.424 0 0 0 0.694 -0.188 2.174 2.174 0 0 0 -0.062 -1.266 63.09 63.09 0 0 1 -0.918 -9.262c-0.03 -0.316 -0.536 -0.442 -0.6 -0.094a26.984 26.984 0 0 0 0.412 9.578Z" fill="#9ca3af" stroke-width="1"></path><path d="M273.764 245.622c0.174 0.6 0.286 1.516 0.918 1.77a0.382 0.382 0 0 0 0.442 -0.19c0.488 -0.88 -0.8 -1.712 -1.676 -8.124 -0.062 -0.444 -0.79 -0.316 -0.758 0.094a29.874 29.874 0 0 0 1.074 6.45Z" fill="#9ca3af" stroke-width="1"></path><path d="M275.662 260.542c-3.504 -5.8 -4.11 -11 -5.754 -17.576 -0.094 -0.38 -0.758 -0.316 -0.696 0.094a46.428 46.428 0 0 0 5 17.26c0.442 0.758 0.916 1.518 1.358 2.276 0.906 1.552 0.776 1.878 1.296 2.118a0.4 0.4 0 0 0 0.57 -0.22c0.238 -0.604 -0.112 -1.204 -1.774 -3.952Z" fill="#9ca3af" stroke-width="1"></path><path d="M280.15 247.898a8.622 8.622 0 0 0 -6.448 2.274c-0.222 0.222 0.062 0.508 0.316 0.38 5.092 -2.6 6.958 -1.27 8.314 -1.516 0.346 -0.064 0.316 -0.474 0.094 -0.664a4.32 4.32 0 0 0 -2.276 -0.474Z" fill="#9ca3af" stroke-width="1"></path><path d="M158.48 242.302c-0.918 -0.79 -2.088 -1.138 -3.036 -1.834a11.556 11.556 0 0 0 -3.2 -2 3.502 3.502 0 0 0 -3.2 0.508c-3.2 2.37 -2.6 4 -2.182 6.542a12.11 12.11 0 0 1 -0.19 4.4 0.316 0.316 0 0 0 0.57 0.254c2 -3.6 -0.842 -6.736 0.948 -8.914a5.036 5.036 0 0 1 2.212 -1.772c2 -0.6 3.73 1.676 5.28 2.53a6.568 6.568 0 0 1 2.338 1.548 1.234 1.234 0 0 1 -0.4 2 5.028 5.028 0 0 1 -4.4 -0.568 11.538 11.538 0 0 0 -1.264 -0.918c-0.286 -0.158 -0.538 0.126 -0.412 0.412a6.176 6.176 0 0 0 5.754 2.276 2.4 2.4 0 0 0 1.182 -4.464Z" fill="#9ca3af" stroke-width="1"></path><path d="M155.54 238.414c1.38 -2.474 2.624 -6.498 3.762 -8.282 0.188 -0.284 0.4 -0.538 0.6 -0.822a62.112 62.112 0 0 1 -1.928 9.832c-0.064 0.442 0.568 0.852 0.822 0.346a41.8 41.8 0 0 0 2.118 -9.6c0.062 -0.538 0.094 -1.234 -0.38 -1.582 -1.322 -1.114 -2.938 2.824 -3.572 4.426a55.4 55.4 0 0 0 -2.086 5.4 0.366 0.366 0 0 0 0.664 0.282Z" fill="#9ca3af" stroke-width="1"></path><path d="M158.638 241.354c-0.2 0.344 0.284 0.758 0.568 0.442a6.642 6.642 0 0 1 1.96 -1.548c1.314 -0.658 1.524 0.094 2.086 0.19 0.6 0.148 0.862 -1 -0.6 -1.4a4.236 4.236 0 0 0 -4.014 2.316Z" fill="#9ca3af" stroke-width="1"></path><path d="M160.724 243.124c-0.284 0.222 0.094 0.664 0.378 0.506 0.894 -0.52 1.532 -1.22 2.15 -1.58 1.014 -0.508 1.342 0.106 1.866 0.316s0.776 -0.944 -0.474 -1.36c-1.8 -0.606 -3.222 1.57 -3.92 2.118Z" fill="#9ca3af" stroke-width="1"></path><path d="M165.844 244.768c-0.264 -1.346 -2.072 -1.072 -3.098 0.158 -0.22 0.252 0.064 0.726 0.38 0.506 0.284 -0.19 1.454 -0.886 1.77 -0.506 0.126 0.158 0 0.758 -0.062 0.948 -0.638 3.19 -7.524 6.666 -7.524 10.052a0.38 0.38 0 0 0 0.696 0.19 14.1 14.1 0 0 1 2.654 -3.73c1.642 -1.688 5.76 -4.7 5.184 -7.618Z" fill="#9ca3af" stroke-width="1"></path><path d="M156.14 257.064a42.488 42.488 0 0 1 -9.862 -5.784 0.718 0.718 0 0 0 -0.822 0.094 74.4 74.4 0 0 0 -12.2 12.424 41.69 41.69 0 0 0 -1.644 10.146 0.422 0.422 0 0 1 -0.822 0.128c-0.838 -2.75 0.39 -7 1.422 -10.242 -0.758 -0.76 -5.278 -5.248 -6.732 -6.734 -7.39 -7.4 -15.274 -16.2 -26.27 -16.4a16.214 16.214 0 0 0 -8.42 2.09c-2.108 1.218 -3.252 3.75 -9.434 4.342a24.914 24.914 0 0 1 -8.35 -0.49c-2.26 -0.8 -0.556 -1.896 -5.502 -1.896 -9.816 0.262 -18 9.052 -22.632 17.86a98.812 98.812 0 0 0 -5.668 13.478c1.42 2.35 6.216 11.302 6.49 14.024 0.03 0.442 -0.538 0.506 -0.76 0.19 -1.154 -1.656 -1.092 -3.324 -4.9 -10.338a36.93 36.93 0 0 0 -10.368 -12.706c-1.084 -0.906 -1.33 -1.026 -2.876 -0.348 -0.374 0.166 -8.652 3.584 -8.852 3.666a0.712 0.712 0 0 0 -0.506 0.664c-0.082 1.258 3.494 15.484 12.298 29.018 2.686 4.11 6 8.188 10.842 9.8 5.268 1.8 9.21 0.03 13.118 -3.952a62.108 62.108 0 0 0 8.884 -11.758c-0.93 -3.716 -2.722 -11.066 -3.382 -14.858a0.376 0.376 0 0 1 0.726 -0.19c3.254 10.454 3.22 18.38 12.582 33.982a0.704 0.704 0 0 0 0.948 0.254c17.16 -8.238 35.162 -14.238 53.676 -9.61a0.528 0.528 0 0 0 0.662 -0.506 24.088 24.088 0 0 0 -2.306 -8.978c-3.522 -7.964 -10.136 -19.218 -10.022 -28.292 0 -0.348 0.57 -0.442 0.632 -0.094 1.726 10.124 3.612 13.166 9.61 25.8 6.948 0.474 11.752 -0.44 16.218 -5.784a87.1 87.1 0 0 0 14.698 -28.228c0.124 -0.298 -0.128 -0.648 -0.476 -0.772Zm-56.236 27.786a27.6 27.6 0 0 1 -4.616 -3.73 15.384 15.384 0 0 1 -3.224 -4.772c-0.126 -0.316 0.412 -0.538 0.57 -0.254 1.916 3.98 6.276 6.748 7.68 8.218a0.34 0.34 0 0 1 -0.41 0.538Z" fill="#9ca3af" stroke-width="1"></path><path d="M232.07 216.76c-5.94 -14.622 -29.458 -14.116 -33.888 4.8a23.458 23.458 0 0 0 3.542 19.252c0.188 0.222 0.568 0.032 0.4 -0.252a26.504 26.504 0 0 1 -3.508 -16.438c1.954 -15.15 16.654 -20.176 26.3 -14.258 5.562 3.448 7.36 8.47 7.68 14.826a22.578 22.578 0 0 1 -7.2 18.336c-0.474 0.4 0.222 1.074 0.664 0.662 8.006 -6.708 9.116 -19.288 6.01 -26.928Z" fill="#9ca3af" stroke-width="1"></path><path d="M216.422 230.258a6.03 6.03 0 0 0 -2.15 0.728c-0.316 0.158 -0.094 0.632 0.222 0.568 2.51 -0.684 3.76 -0.366 4.2 -0.632a0.372 0.372 0 0 0 0.064 -0.6 4.4 4.4 0 0 0 -2.336 -0.064Z" fill="#9ca3af" stroke-width="1"></path><path d="M203.746 230.2a0.272 0.272 0 0 0 0.064 0.536 24.55 24.55 0 0 1 4.362 0.506 0.506 0.506 0 0 0 0.38 -0.442c0 -0.882 -3.22 -1.094 -4.806 -0.6Z" fill="#9ca3af" stroke-width="1"></path><path d="M211.364 229.942c-0.062 -0.316 -0.536 -0.222 -0.536 0.064a6.296 6.296 0 0 1 -1.518 4.236c-0.254 0.284 -0.632 0.536 -0.632 0.948 0 0.894 2.246 2.082 2.75 1.454a0.386 0.386 0 0 0 0 -0.506c-0.19 -0.252 -0.664 -0.222 -0.948 -0.316 -0.224 -0.09 -0.854 -0.454 -0.854 -0.6a5.9 5.9 0 0 0 1.738 -5.28Z" fill="#9ca3af" stroke-width="1"></path><path d="M210.384 241.448a3.252 3.252 0 0 0 2.6 -0.062 1.71 1.71 0 0 0 1.044 -1.582 3.352 3.352 0 0 0 -0.316 -1.96c-0.374 -0.468 -0.892 -0.156 -0.842 0.382a3.012 3.012 0 0 1 0.17 1.072 2.272 2.272 0 0 1 -0.128 0.838 2.502 2.502 0 0 1 -2.772 0.238c-0.552 -0.218 -0.802 0.582 0.244 1.074Z" fill="#9ca3af" stroke-width="1"></path><path d="M72.308 313.87c-2.94 4.974 -9.05 27.442 -8.978 30.03 0 0.378 0.57 0.568 0.728 0.19 0.8 -1.6 1.762 -8.978 6.574 -23.298a68.912 68.912 0 0 1 2.372 -6.48c0.252 -0.512 -0.416 -0.912 -0.696 -0.442Z" fill="#9ca3af" stroke-width="1"></path><path d="M127.88 304.64a0.376 0.376 0 0 0 -0.728 0.188 200.022 200.022 0 0 1 4.552 27.502c0.504 6.872 0.446 6.722 0.634 7.84 0.094 0.536 0.82 0.348 0.852 -0.126 0.384 -4.742 -1.772 -24.644 -5.31 -35.404Z" fill="#9ca3af" stroke-width="1"></path><path d="M108.882 329.864c-1.146 0.3 -7.762 6.4 -10.526 13.308 -0.128 0.348 0.41 0.57 0.6 0.254a44.8 44.8 0 0 1 6.038 -8.724c-0.126 1.452 -0.158 2.938 -0.19 4.4a17.484 17.484 0 0 0 0.094 4.838 0.416 0.416 0 0 0 0.8 0 20.034 20.034 0 0 0 0.254 -4.838 42.618 42.618 0 0 0 -0.086 -5.322c0.2 -0.19 0.244 -0.272 0.434 -0.462 2.074 -2.074 2.614 -2.166 2.97 -2.846 0.212 -0.354 -0.04 -0.698 -0.388 -0.608Z" fill="#9ca3af" stroke-width="1"></path><path d="M108.06 306.22c-0.064 -0.38 -0.696 -0.286 -0.696 0.094 0.222 3.8 0.6 7.556 0.822 11.348 0.236 3.538 0.422 10.8 0.632 11.318a0.4 0.4 0 0 0 0.76 0 134.342 134.342 0 0 0 -1.518 -22.76Z" fill="#9ca3af" stroke-width="1"></path><path d="M103.95 325.186a26.254 26.254 0 0 0 0.57 5.816 0.312 0.312 0 0 0 0.6 0 10.748 10.748 0 0 0 0.032 -2.844c-0.512 -7.916 -0.884 -13.884 -1.8 -20.58 -0.032 -0.348 -0.57 -0.348 -0.538 0 0.238 5.936 0.768 11.888 1.136 17.608Z" fill="#9ca3af" stroke-width="1"></path><path d="M236.022 310.012a10.972 10.972 0 0 0 -2.214 -1.8c0.126 -0.916 0.552 -2.498 0.538 -3.066 -1.4 -0.624 -16.034 -8.128 -17.102 -8.692a24.4 24.4 0 0 1 -3.66 -2.154c-15.132 7.568 -14.454 7.826 -17.898 9.2a42.234 42.234 0 0 0 0.98 4.962 38.9 38.9 0 0 0 -15.332 17.354 21.35 21.35 0 0 0 -2.182 6.45 0.496 0.496 0 0 0 0.918 0.252c1.514 -3.2 1.338 -4.926 4.8 -10.558 10.036 -16.056 20.986 -16.692 39.956 -14.352 8.864 1.12 8.966 1.694 12.4 5.912a84.298 84.298 0 0 1 10.78 17.8c2.114 4.582 2.35 5.882 3.224 7.272a0.4 0.4 0 0 0 0.726 -0.316c-0.274 -2.444 -7.036 -19.054 -15.934 -28.264Z" fill="#9ca3af" stroke-width="1"></path><path d="M251.1 272.838a44.128 44.128 0 0 0 -5.974 -21.78 12.956 12.956 0 0 0 -7.43 -5.912 15.322 15.322 0 0 0 -12.528 1.822 18.984 18.984 0 0 1 -0.6 -8.428 4.046 4.046 0 0 0 3.762 -4.552c-0.258 -1.8 -1.678 -3.37 -3.32 -3.066 0 -0.656 -0.244 -0.612 -0.884 -2.75 -0.064 -0.19 -0.126 -0.38 -0.19 -0.568a0.336 0.336 0 0 0 0.284 -0.444c-1.094 -2.97 -15.6 -6.4 -20.926 -3.476a0.298 0.298 0 0 0 -0.538 0.094 59.542 59.542 0 0 0 -0.726 8.662c-0.072 6.112 1.678 13.212 7.744 14.13a13.898 13.898 0 0 1 -0.448 2.76c-4.674 -2.754 -10.754 -1.55 -15.01 1.508 -4.9 3.508 -7.902 8.946 -10.716 14.128 -5.124 9.424 -13.064 26 -6.48 34.426a12.324 12.324 0 0 0 7.08 4.2 22.216 22.216 0 0 0 11.164 -0.704c1.508 -0.74 12.246 -7.322 34.294 -17.314 -7.886 -3.704 -18.874 -2.2 -27.28 0.032a48.93 48.93 0 0 0 -11.572 4.424c-1.428 1.064 -1.9 0.15 -1.276 -0.5a23.77 23.77 0 0 1 5.354 -2.724 20.498 20.498 0 0 1 1.33 -7.238 5.61 5.61 0 0 1 1.232 -2.212 0.382 0.382 0 0 1 0.632 0.346c-0.25 1.62 -1.818 2.74 -2.244 8.726a78.818 78.818 0 0 1 17.164 -3.858c5.98 -0.6 12.636 -0.55 17.638 2.75a16.658 16.658 0 0 1 2.72 -0.316c0 -0.2 0.082 -1.31 0.094 -1.516 0.072 -1.178 0.032 -6.744 0.032 -7.176 0 -0.38 0.632 -0.506 0.696 -0.096a44.624 44.624 0 0 1 0.284 8.82 17.744 17.744 0 0 1 2.814 0.38c0.726 0.158 1.846 0.278 2.244 0.948a0.4 0.4 0 0 1 -0.22 0.57c-0.57 0.19 -1.088 -0.172 -2.214 -0.382a19.732 19.732 0 0 0 -6.766 -0.156c-3.87 1.762 -7.958 3.582 -16 7.554 1.4 0.466 6.686 3.188 7.176 3.446 15.91 8.188 16.706 9.266 21.178 6.67a15.962 15.962 0 0 0 6.228 -7.744c2.438 -5.892 2.498 -17.138 2.198 -23.484Zm-36.954 -9.2a134.058 134.058 0 0 1 -3.556 -14.4 7.67 7.67 0 0 0 0.238 -2.546 10.892 10.892 0 0 0 7.618 -3 9.306 9.306 0 0 0 2.686 -3.288c0.158 -0.412 -0.4 -0.6 -0.664 -0.38a19.572 19.572 0 0 1 -5.246 4.648 8.332 8.332 0 0 1 -6.386 0.63 7.776 7.776 0 0 1 -4.616 -5.024c-2.156 -5.7 -0.636 -13.264 -0.758 -15.902a27.14 27.14 0 0 1 4.014 -0.822 28.35 28.35 0 0 1 12.518 1.962 8.918 8.918 0 0 1 3.414 2 8.462 8.462 0 0 0 0.032 0.916 9.4 9.4 0 0 0 0.758 2.4 1.028 1.028 0 0 0 0.316 0.314 1.42 1.42 0 0 0 -0.662 0.634 0.32 0.32 0 0 0 0.504 0.378c0.888 -0.918 2.922 0.256 3 2.4a3 3 0 0 1 -3.224 3.034 0.512 0.512 0 0 0 -0.506 0.378 19.704 19.704 0 0 0 0 7.2c0.08 0.484 0.296 2.044 0.81 2.46 -0.556 0.99 -10.156 15.808 -10.29 16.008Z" fill="#9ca3af" stroke-width="1"></path><path d="M324.69 231.744c-0.578 0.366 -0.564 1.342 -1.548 1.612a3.17 3.17 0 0 1 -2.278 -0.696 0.32 0.32 0 0 0 -0.504 0.38 3.026 3.026 0 0 0 2.94 1.264 2.714 2.714 0 0 0 1.77 -1.4 1.3 1.3 0 0 0 0.284 -0.822 0.44 0.44 0 0 0 -0.664 -0.338Z" fill="#9ca3af" stroke-width="1"></path><path d="M329.906 280.236a1.774 1.774 0 0 0 -0.8 -0.348c-2 -0.668 -2.896 -3.774 -4.364 -5.438a19.24 19.24 0 0 0 -4.488 -3.16 3.8 3.8 0 0 1 -0.98 -1.266c-0.252 -0.504 -0.884 -0.126 -0.822 0.348 0.342 2.162 3.632 2.48 5.722 4.932 1.422 1.696 1.84 3.894 3.952 5.184 0.474 0.254 1.232 0.632 1.738 0.316a0.4 0.4 0 0 0 0.042 -0.568Z" fill="#9ca3af" stroke-width="1"></path><path d="M312.298 275.714a16.568 16.568 0 0 0 4.868 1.8c0.696 0.128 1.866 0.474 2.498 0a0.33 0.33 0 0 0 0.064 -0.504c-0.652 -0.652 -1.152 -0.166 -4.616 -1.234a45.738 45.738 0 0 1 -4.426 -2.022 0.342 0.342 0 0 0 -0.38 0.504 5.756 5.756 0 0 0 1.992 1.456Z" fill="#9ca3af" stroke-width="1"></path><path d="M317.134 281.4c0.832 0.102 0.92 0.108 1.454 -0.158 0.222 -0.096 0.158 -0.38 0 -0.508a8.756 8.756 0 0 0 -2.718 -0.82 14.312 14.312 0 0 1 -6.89 -4.9c-0.286 -0.348 -0.8 0.094 -0.6 0.474a12.822 12.822 0 0 0 8.754 5.912Z" fill="#9ca3af" stroke-width="1"></path><path d="M311.824 282.384c0.704 0.4 3.476 1.8 4.236 1.518a0.4 0.4 0 0 0 0.222 -0.538c-0.554 -0.922 -3.6 -0.686 -7.272 -4.362a0.32 0.32 0 0 0 -0.504 0.38 8.8 8.8 0 0 0 3.318 3.002Z" fill="#9ca3af" stroke-width="1"></path><path d="M320.296 288.486c-4.732 -1.456 -7.426 -2.054 -10.716 -5.342a0.306 0.306 0 0 0 -0.474 0.378c2.908 5.02 11.038 5.298 15.932 7.966a9.8 9.8 0 0 0 2.054 1.076 0.344 0.344 0 0 0 0.38 -0.506c-0.872 -1.6 -5.428 -3.032 -7.176 -3.572Z" fill="#9ca3af" stroke-width="1"></path><path d="M341.824 248.53a85.152 85.152 0 0 0 -11.286 1.138 120.096 120.096 0 0 0 -27.028 7.68 1.024 1.024 0 0 0 -0.536 1.644c4.708 7.946 5.516 9.826 8.154 14.036 0.222 0.38 0.76 0.062 0.6 -0.348 -1.862 -4.022 -7.022 -12.774 -7.46 -13.466 -0.552 -0.964 -0.6 -0.8 -0.254 -0.98a119.678 119.678 0 0 1 34.868 -8.536c0.852 -0.062 1.674 -0.126 2.496 -0.252a15.986 15.986 0 0 0 1.234 2.688c9.554 19.744 10.478 25.696 11.822 27.912 0.158 0.284 0.728 0.19 0.664 -0.19 -0.314 -3.456 -12.158 -31.202 -13.274 -31.326Z" fill="#9ca3af" stroke-width="1"></path><path d="M338.568 297.684c-2.51 -0.2 -13.38 1.982 -15.838 2.498 -4.336 -9.71 -4.422 -9.932 -5 -10.654 -0.19 -0.252 -0.57 0.032 -0.506 0.286 0.256 1.278 4.742 10.926 4.836 11.126 0.246 0.488 0.23 0.144 8.566 -1.328a65.068 65.068 0 0 0 8.062 -1.328c0.322 -0.084 0.228 -0.572 -0.12 -0.6Z" fill="#9ca3af" stroke-width="1"></path><path d="M365.5 243.282c-3.488 -6.246 -8.116 -7.588 -15.078 -6.734a23.708 23.708 0 0 0 -9.824 3.146 28.514 28.514 0 0 1 -2.378 -10.036 3.244 3.244 0 0 0 2.908 -2.366c8.49 -4.712 8.926 -14.754 4.8 -23.4 -6.944 -14.426 -27.986 -12.058 -34.424 0.032a11.424 11.424 0 0 0 2.822 14.94c-4.868 1.646 -4.588 7.564 -0.102 8.39 -0.078 5.224 0.644 10.174 5.468 12.108a10.128 10.128 0 0 0 3.856 0.756 12.412 12.412 0 0 1 -0.274 3.2 36.064 36.064 0 0 0 -9.4 -0.956c-9.492 0.2 -13.6 8.38 -17.07 17.132a52.636 52.636 0 0 0 -3.2 10.274c0 0.378 0.57 0.57 0.728 0.19a40.924 40.924 0 0 0 1.422 -4.332 96.536 96.536 0 0 1 5.058 -12.486c2.496 -4.774 6.416 -9.166 12.074 -9.61a49.11 49.11 0 0 1 10.212 0.57 0.488 0.488 0 0 0 0.062 0.412c1.738 2.02 4.774 2.02 7.24 1.862a14.554 14.554 0 0 0 8.06 -2.526c4.378 -3.286 0.178 -2.77 6.264 -4.838 4.486 -1.528 10.776 -2.538 14.884 -0.38 3.286 1.776 5.086 5.282 6.574 8.694a71.44 71.44 0 0 1 4.964 18.05c0.882 6.13 1.5 17.924 0 23.93 -1.922 7.82 -7.754 11.638 -15.49 11.568a41.854 41.854 0 0 1 -12.2 -2.75c-4.4 -1.39 -15.2 -4.8 -16.218 -5.152a57.766 57.766 0 0 0 3.384 -12.076c0.062 -0.282 0.062 -0.568 0.378 -0.696a3.212 3.212 0 0 1 0.948 -0.124 73.854 73.854 0 0 1 19.252 0.538 71.106 71.106 0 0 1 8.124 1.768c0.38 0.096 0.79 0.096 1.2 0.158a0.444 0.444 0 0 0 0.222 -0.822c-1.298 -0.648 -0.042 -0.27 -4.236 -1.328a74.6 74.6 0 0 0 -24.34 -1.548c-3.544 0.38 -1.866 0.476 -4.4 9.23 -1.546 5.368 -1.616 5.632 -1.012 5.816 4.584 1.456 18.24 5.816 20.484 6.514 6.2 1.872 12.886 2.524 18.524 -1.234 1.94 15.93 2.114 14.892 1.738 15.078a2.384 2.384 0 0 1 -0.822 0.158 165.234 165.234 0 0 1 -29.524 2.054c-10.75 0 -21.336 -0.092 -31.642 -2.368a240.96 240.96 0 0 1 2.244 -28.482c0.032 -0.41 -0.6 -0.476 -0.696 -0.096 -0.4 1.834 -0.726 3.698 -1.012 5.564 -0.75 0 -3.102 3.542 -8.502 4.836a12.158 12.158 0 0 1 -9.42 -1.454c-7.6 -4.856 -9.748 -21.044 -11.854 -29.27 3.118 0.09 6.4 -1.702 9.388 -2.974 0.254 -0.124 0.504 -0.226 0.758 -0.348 0.81 -0.382 0.618 -0.224 1.834 1.4 6.898 9.644 7.424 16.976 8.63 19.22 0.134 0.248 0.446 0.094 0.474 -0.126a22.694 22.694 0 0 0 -1.644 -6.956 51.894 51.894 0 0 0 -6.544 -12.548c-2.106 -2.876 -1.442 -2.662 -5.6 -0.822 -6.776 3.122 -8.2 1.988 -8.03 2.814a0.288 0.288 0 0 0 -0.094 0.282 92.038 92.038 0 0 0 5.784 22.13 18.8 18.8 0 0 0 5.754 7.8c5.668 4.124 14.2 2.424 18.902 -2.622a186.504 186.504 0 0 0 -1.484 22.064 0.612 0.612 0 0 0 0.41 0.536 145.6 145.6 0 0 0 31.232 2.498 162.982 162.982 0 0 0 31.39 -2.212 1.434 1.434 0 0 0 1.264 -0.854 5.03 5.03 0 0 0 -0.126 -2.054c-0.19 -1.518 -0.38 -3.036 -0.6 -4.522 -1.234 -9.74 -1.13 -9.2 -1.424 -9.356 5.494 -4.222 6.46 -10.87 6.576 -17.83 0.206 -11.998 -1.726 -27.15 -7.626 -37.424Zm-53.616 -20.026a3.97 3.97 0 0 1 3.102 -3.272 3.16 3.16 0 0 1 3.098 3.478 3.328 3.328 0 0 1 -2.624 2.75 3.04 3.04 0 0 1 -3.576 -2.956Zm20.93 21.67a13.638 13.638 0 0 1 -8.6 -0.748 7.152 7.152 0 0 0 0.098 -4.088 16.286 16.286 0 0 0 10.684 -6.134c0.294 -0.372 -0.29 -1.018 -0.758 -0.6a26.304 26.304 0 0 1 -6.418 4.8c-4.622 2.11 -10.4 0.986 -12 -4.236a21.434 21.434 0 0 1 -0.728 -6.512 4.496 4.496 0 0 0 3.952 -3.29 7.2 7.2 0 0 0 0.126 -0.82l0.758 -0.188c-0.378 1.294 -0.662 2.622 -0.916 3.95 -0.19 1 -0.664 2.6 0.758 2.876a5.084 5.084 0 0 0 3.572 -0.694 0.498 0.498 0 0 0 -0.506 -0.856 5.91 5.91 0 0 1 -1.422 0.54 3 3 0 0 1 -1.486 0c-0.27 -0.15 -0.212 -0.504 0.348 -3.036q0.332 -1.422 0.758 -2.846a4.16 4.16 0 0 1 1.36 0.348 4.144 4.144 0 0 0 4.332 4.33 4.528 4.528 0 0 0 4.046 -3.286 4.4 4.4 0 0 0 -3.7 -5.342 4.916 4.916 0 0 0 -4.424 3.224 4.342 4.342 0 0 0 -1.266 -0.316c0.284 -0.916 0.538 -1.8 0.8 -2.72 0.094 -0.346 -0.45 -0.6 -0.634 -0.252a21.764 21.764 0 0 0 -1.232 2.972 3.348 3.348 0 0 0 -1.138 0.316 4.4 4.4 0 0 0 -3.2 -3.51c0.136 -0.844 0.4 -2.226 0.476 -2.522 1.744 -1.646 8.756 -0.968 11.03 -0.67a42.8 42.8 0 0 1 7.016 1.612c0.648 0.2 0.782 0.2 0.886 0.916a16.854 16.854 0 0 0 1.52 5.07c-0.452 0.444 -0.048 0.928 0.314 0.716 1.454 -0.886 2.846 0.506 3.034 1.96a2.306 2.306 0 0 1 -2.466 2.688 0.556 0.556 0 0 0 -0.694 0.536c0.074 3 1.158 9.078 2.896 11.42a10.104 10.104 0 0 1 -7.176 4.392Zm-9.042 -22.224c0.292 -0.846 2.304 -3.044 4.08 -2.148a3.158 3.158 0 0 1 -0.76 6 2.916 2.916 0 0 1 -3.32 -3.852Z" fill="#9ca3af" stroke-width="1"></path><path d="M308.03 315.766c-1.692 2.88 -6.852 23.764 -7.238 28.07 -0.064 0.57 0.822 0.664 0.98 0.126 0.466 -1.656 1 -5.216 2.4 -11 2.034 -8.426 3.154 -11.512 3.826 -13.972a20.786 20.786 0 0 0 0.8 -3.066c0.054 -0.38 -0.58 -0.476 -0.768 -0.158Z" fill="#9ca3af" stroke-width="1"></path><path d="M334.236 338.21v-0.158a0.344 0.344 0 0 0 -0.284 -0.348c-0.316 -0.538 -0.632 -1.044 -0.98 -1.55a0.334 0.334 0 0 0 -0.57 0.348c0.286 0.6 0.57 1.2 0.854 1.772a52.436 52.436 0 0 0 -3.288 10.02 0.376 0.376 0 0 0 0.728 0.19c0.678 -1.868 1.896 -6.4 3.13 -9.074a83.8 83.8 0 0 1 4.8 12.108c0.222 0.538 0.918 0.126 0.854 -0.348a67.034 67.034 0 0 0 -5.244 -12.96Z" fill="#9ca3af" stroke-width="1"></path><path d="M363.888 322.878a49.2 49.2 0 0 0 -2.056 -6.764c-0.126 -0.316 -0.694 -0.158 -0.632 0.158 0.358 2.862 0.668 2.828 6 24.182a56 56 0 0 0 1.8 6.828c0.158 0.41 0.854 0.41 0.822 -0.094 -0.262 -2.52 -5.298 -21.862 -5.934 -24.31Z" fill="#9ca3af" stroke-width="1"></path><path d="M133.096 131.316c-1.354 -8.786 -6.568 -17.734 -14.92 -20.452a33.488 33.488 0 0 0 -24.752 3.2c-11.032 6.164 -14.614 17.01 -11.98 29.02 3.582 16.12 17.026 26.718 17.322 37.648 -2.448 0.816 -3.894 5 -1.422 6.8a3.372 3.372 0 0 0 -0.064 5.4 3.064 3.064 0 0 0 -0.378 3.824 7.704 7.704 0 0 0 5.6 2.846 26.498 26.498 0 0 0 7.4 0.632c6.4 -0.494 7.838 -4.2 6.036 -6.228a3.516 3.516 0 0 0 0.634 -5.722 5.638 5.638 0 0 0 1.508 -3.884 2.846 2.846 0 0 0 -2.244 -3.35c1.078 -10.3 9.6 -16.638 14.826 -30.536a38.86 38.86 0 0 0 2.434 -19.198ZM107.08 134.572c-0.874 -0.874 -1.28 -2.4 -0.254 -3.162 0.76 -0.536 1.454 0.254 1.518 0.98a2.624 2.624 0 0 1 -1.264 2.182Zm-0.506 1.864c0.126 -0.064 0.222 -0.126 0.348 -0.188a11.276 11.276 0 0 0 6.2 2.434c-0.664 1.928 -1.17 3.95 -1.644 5.91a135.84 135.84 0 0 0 -3.952 36.354c-1.296 -0.064 -2.6 -0.128 -3.92 -0.19 1.352 -12.558 0.776 -33.456 -2.686 -43.15a11.072 11.072 0 0 0 5.654 -1.17Zm23.866 10.274c-4.784 16.224 -15.064 22.6 -15.964 34.582 -0.03 0.032 -0.094 0.096 -0.094 0.128 -1.834 -0.19 -3.666 -0.348 -5.532 -0.444A135.558 135.558 0 0 1 111 153.128a114.706 114.706 0 0 1 3.54 -14.51 5.944 5.944 0 0 0 5 -2.846c1.588 -3.4 -2.916 -6.4 -5.91 1.582a9.628 9.628 0 0 1 -5.564 -1.928c3.458 -3.038 0.644 -6.39 -1.644 -5.28 -1.54 0.748 -2.22 2.926 -0.442 5.122a9.556 9.556 0 0 1 -5.47 0.98 11.828 11.828 0 0 0 -2.624 -4.4c-2.36 -1.954 -5.148 0.344 -3.982 2.306a9.074 9.074 0 0 0 5.69 3.256 55.43 55.43 0 0 1 2.276 10.37c2.226 14.958 0.79 29.77 0.79 32.842 -1.786 -0.08 -2.58 -0.13 -2.908 -0.094 0 -10.106 -10.22 -18.46 -15.458 -32.4 -4.344 -11.586 -3.26 -23.426 6.448 -30.852 8.13 -6.254 22.74 -8.84 31.042 -3.288a24.69 24.69 0 0 1 9.168 13.878 33.456 33.456 0 0 1 -0.512 18.844Zm-15.362 -9.452a14.06 14.06 0 0 1 1.232 -2.244c2.174 -3.138 3 -0.374 1.4 1.044a5.292 5.292 0 0 1 -2.632 1.2Zm-16.06 -1.296a8.926 8.926 0 0 1 -3.096 -1.548 2.816 2.816 0 0 1 -0.98 -1.044c-0.244 -0.788 1.354 -1.856 2.75 0.19a14.856 14.856 0 0 1 1.326 2.402Z" fill="#9ca3af" stroke-width="1"></path><path d="M46.702 68.03c0.21 0.022 23.12 0.336 25.7 0.316a31.2 31.2 0 0 0 6.892 -0.316c0.38 -0.126 0.442 -0.758 0 -0.822a13.874 13.874 0 0 0 -3.034 -0.062c-6.25 0.188 -26.212 -0.478 -29.684 -0.032 -0.576 0.032 -0.376 0.864 0.126 0.916Z" fill="#9ca3af" stroke-width="1"></path><path d="M46.702 77.546c0.118 0 22.46 0.34 25.7 0.316a31.2 31.2 0 0 0 6.892 -0.316c0.38 -0.126 0.442 -0.76 0 -0.822a13.874 13.874 0 0 0 -3.034 -0.064c-6.25 0.19 -26.212 -0.476 -29.684 -0.032 -0.576 0.064 -0.376 0.88 0.126 0.918Z" fill="#9ca3af" stroke-width="1"></path><path d="M166.762 71.824c0.11 0 22.454 0.34 25.7 0.316a31.178 31.178 0 0 0 6.89 -0.316c0.38 -0.126 0.442 -0.758 0 -0.822a14 14 0 0 0 -3.034 -0.064c-6.25 0.19 -26.212 -0.476 -29.684 -0.03 -0.568 0.062 -0.346 0.88 0.128 0.916Z" fill="#9ca3af" stroke-width="1"></path><path d="M166.762 81.37c0.2 0.022 22.852 0.338 25.7 0.316a31.178 31.178 0 0 0 6.89 -0.316c0.38 -0.126 0.442 -0.758 0 -0.822a13.872 13.872 0 0 0 -3.034 -0.062c-6.25 0.188 -26.212 -0.478 -29.684 -0.032 -0.568 0.032 -0.348 0.864 0.128 0.916Z" fill="#9ca3af" stroke-width="1"></path><path d="M85.2 108.936a120.216 120.216 0 0 0 -9.894 -18.81c1.17 0.316 4.8 1.234 5.438 1.424a3.908 3.908 0 0 0 1.96 0.316 0.57 0.57 0 0 0 0.252 -0.95 4.542 4.542 0 0 0 -2.054 -0.694c-0.728 -0.19 -3.572 -0.886 -4.268 -1.044 -1.718 -0.4 -2.698 -1.074 -3.256 0.6a45.848 45.848 0 0 0 -1.8 6.45 0.376 0.376 0 0 0 0.728 0.2 35.504 35.504 0 0 0 1.96 -5.47 185.952 185.952 0 0 1 10.146 18.304c0.224 0.432 0.976 0.118 0.788 -0.326Z" fill="#9ca3af" stroke-width="1"></path><path d="M153.642 95.468c-0.166 -0.916 -1.012 -0.838 -3.54 -1.168a39.506 39.506 0 0 0 -4.4 -0.412 0.372 0.372 0 0 0 -0.094 0.728 32.944 32.944 0 0 0 5.752 1.042 170.894 170.894 0 0 1 -16.342 12.962c-0.442 0.316 -0.064 1.042 0.442 0.758a89.818 89.818 0 0 0 9.14 -6.29c4.476 -3.4 7.6 -6.4 7.8 -6.544 -0.126 1.232 -0.474 5.026 -0.538 5.69a3.756 3.756 0 0 0 0.032 1.96 0.578 0.578 0 0 0 0.98 0 1.944 1.944 0 0 0 0.252 -1.044c0.19 -2.15 0.654 -7.108 0.516 -7.682Z" fill="#9ca3af" stroke-width="1"></path><path d="M162.968 150.82a41.854 41.854 0 0 0 -4.768 -4.678 0.38 0.38 0 0 0 -0.536 0.536 31.274 31.274 0 0 0 3.824 4.332c-1.178 0.2 -8.104 0.316 -10.02 0.284 -3.636 -0.032 -7.302 -0.158 -10.938 -0.348 -0.474 -0.032 -0.6 0.79 -0.126 0.854a119 119 0 0 0 21.242 0.506c-5.168 5.358 -5.024 5.134 -5.12 5.6a0.566 0.566 0 0 0 0.694 0.696c0.71 -0.2 0.772 -0.622 4.648 -4.742a12.976 12.976 0 0 0 1.4 -1.548c0.458 -0.544 0.112 -1.052 -0.3 -1.492Z" fill="#9ca3af" stroke-width="1"></path><path d="M239.752 115.258a31.04 31.04 0 0 0 -31.8 -3.762 0.696 0.696 0 0 0 -0.98 0.726 298.704 298.704 0 0 0 9.104 37.712 0.654 0.654 0 0 0 1.17 0.158c23.888 -36.024 23.006 -34.334 22.506 -34.834Z" fill="#9ca3af" stroke-width="1"></path><path d="M377.386 86.492a4.958 4.958 0 0 0 -7.934 -2.34c-0.312 -1.784 0.33 -12.628 -0.308 -16 -0.18 -0.944 -0.278 -0.95 -1.368 -0.936 -1.186 0.018 -15.212 0.084 -15.268 0.096 -0.43 0.072 -0.744 0.822 -0.032 1.4a4.278 4.278 0 0 1 -1.234 6.512 4.496 4.496 0 0 1 -6.384 -2.686c-0.506 -1.8 0.822 -3.13 1.548 -4.648a0.416 0.416 0 0 0 -0.378 -0.6l-56.964 -0.126a0.566 0.566 0 0 0 -0.568 0.568c0.062 2.434 0.22 14.036 0.252 17.386a5.094 5.094 0 0 0 -7.872 2.498 6.11 6.11 0 0 0 1.962 6.954 5.22 5.22 0 0 0 6.036 0c0 0.758 0.158 15.868 0.158 15.868a0.568 0.568 0 0 0 0.412 0.538c0.672 0.156 17.714 0.128 17.512 0.126a6.698 6.698 0 0 0 -1.77 3 5.11 5.11 0 0 0 7.27 5.658 5.8 5.8 0 0 0 2.466 -8.662c32.954 0 30.824 0.2 31.296 -0.094 0.346 -0.252 -0.096 -0.6 -0.254 -0.822a4.654 4.654 0 0 1 3.162 -7.586 4.742 4.742 0 0 1 3.6 1.612 3.656 3.656 0 0 1 0.286 4.488c-0.506 0.962 -1.666 2.446 -0.632 2.56 0 0 15.974 -0.112 16.468 -0.126 1.076 0.222 1.076 -0.19 1.076 -0.378 0 -5.818 -0.222 -11.6 -0.286 -17.418 3.986 2.066 9.006 -2.47 7.748 -6.842Zm-3.066 5.342c-3.124 2.328 -5.628 -1.4 -5.944 0.348 0.064 5.91 0.096 11.79 0.284 17.702 -5.12 0.094 -10.21 0.094 -15.33 0.094 3.666 -4.14 -1.4 -10.178 -6.2 -8.124a5.732 5.732 0 0 0 -2.656 8.124c-4.772 -0.032 -9.546 0 -14.32 -0.094 -0.126 -5.28 -0.22 -10.558 -0.284 -15.8a5.058 5.058 0 0 1 -5.848 0.728 6.478 6.478 0 0 1 -3.32 -5.344 5.432 5.432 0 0 1 6.322 -5.69 3.834 3.834 0 0 1 2.752 1.456c-0.064 -5.628 -0.128 -11.254 -0.222 -16.882 5.09 0.096 10.178 0.096 15.3 0.096 -3.54 4.14 1.548 10.052 6.29 8.028 2.94 -1.2 4.646 -5.374 2.53 -8 4.8 -0.032 9.61 0.03 14.382 -0.096 0.476 1.838 -0.758 19.282 1.076 17.734 4.268 -5.66 10.53 1.734 5.188 5.72Z" fill="#9ca3af" stroke-width="1"></path><path d="M238.614 122.054c-0.104 0.2 -19.6 29.536 -19.474 29.334a2.926 2.926 0 0 1 -5.246 -0.726 300.29 300.29 0 0 1 -8.44 -33.698A39.64 39.64 0 0 0 185.348 138.84c-8.13 22.94 8.414 44.932 33.446 42.2 15.278 -1.638 28.122 -12.046 30.724 -27.28a33.8 33.8 0 0 0 -10.904 -31.706Z" fill="#9ca3af" stroke-width="1"></path><path d="M83.922 225.438c-1.412 0.214 -0.492 2.038 0.576 1.696a0.896 0.896 0 0 0 -0.576 -1.696Z" fill="#9ca3af" stroke-width="1"></path><path d="M91.05 222.766a0.926 0.926 0 0 0 -0.428 1.44 1 1 0 0 0 1.254 0.17 1.018 1.018 0 0 0 0.274 -1.132 0.85 0.85 0 0 0 -1.1 -0.478Z" fill="#9ca3af" stroke-width="1"></path><path d="M313.132 223.448a0.826 0.826 0 1 0 0.63 1.528c0.828 -0.266 0.502 -1.942 -0.63 -1.528Z" fill="#9ca3af" stroke-width="1"></path><path d="M324.8 223.8a0.828 0.828 0 1 0 0.616 1.538c0.838 -0.338 0.468 -1.912 -0.616 -1.538Z" fill="#9ca3af" stroke-width="1"></path></svg>