<svg width="60" height="60" viewBox="0 0 60 60" fill="none" xmlns="http://www.w3.org/2000/svg">
<g clip-path="url(#clip0_12_713)">
<rect width="60" height="60" rx="10" fill="#F9FAFB"/>
<path d="M-7.49999 47.5C-8.49999 66.75 8.87501 83 29.875 83C50.875 83 69.5 65.75 67.375 46.625C64.375 19.75 44.5 18 29.875 18C21 18 -5.24999 10.25 -7.49999 47.5Z" fill="#EF4D3C"/>
<path d="M54.4812 39.7038C46.6194 27.7768 33.4027 31.4004 29.8608 26.9333C29.9414 35.5579 23.652 31.3664 20.5633 35.2705C16.6102 40.3076 15.1931 49.1962 10.4597 50.9905C14.9922 41.0728 7.49607 41.5178 17.8718 28.1703C12.2798 31.7227 9.37222 28.2497 1.77674 31.4458C8.30338 20.8844 18.7059 23.7873 18.7059 23.7873C18.7059 23.7873 12.1502 17.8483 6.67961 21.0245C12.35 12.4712 29.0747 23.0654 29.0747 23.0654C29.0747 23.0654 35.8396 11.2517 50.7045 23.4884C42.0472 20.0691 32.5803 23.6577 32.5803 23.6577C32.5803 23.6577 48.1685 19.6369 54.4812 39.7038Z" fill="#8CC63E"/>
<path d="M54.4812 39.7038C54.4812 39.7038 45.199 22.9148 29.4637 24.5619C43.2785 18.0575 54.4041 31.4542 54.4812 39.7038Z" fill="#64892F"/>
<path d="M50.7045 23.4884C50.7045 23.4884 39.1244 14.9712 29.0804 23.6904C31.9822 13.1628 47.4021 17.894 50.7045 23.4884Z" fill="#64892F"/>
<path d="M26.5911 24.8387C11.4072 31.9808 16.6067 39.9326 10.462 51.2405C14.6243 41.8262 3.96712 25.05 26.5911 24.8387Z" fill="#64892F"/>
<path d="M32.5804 23.6577C32.5804 23.6577 29.0315 18.4406 27.7208 11.9526C27.5876 11.0788 23.839 11.2388 23.9721 12.1126C25.3003 20.4756 21.9687 25.1319 21.9687 25.1319C21.9687 25.1319 24.6017 25.9823 27.8516 25.952C31.1026 26.0466 32.5804 23.6577 32.5804 23.6577Z" fill="#64892F"/>
<path d="M25.8529 12.7201C24.8174 12.7297 23.9748 12.4018 23.971 11.9876C23.9671 11.5734 24.8034 11.2298 25.8389 11.2201C26.8744 11.2105 27.7169 11.5384 27.7208 11.9526C27.7247 12.3668 26.8884 12.7104 25.8529 12.7201Z" fill="#8CC63E"/>
<circle cx="4" cy="4" r="4" transform="matrix(-1 0 0 1 50 38)" fill="#333333"/>
<circle cx="2.5" cy="2.5" r="2.5" transform="matrix(-1 0 0 1 45 49)" fill="#333333"/>
<circle cx="4" cy="4" r="4" transform="matrix(-1 0 0 1 36 42)" fill="#333333"/>
</g>
<defs>
<clipPath id="clip0_12_713">
<rect width="60" height="60" rx="10" fill="white"/>
</clipPath>
</defs>
</svg>
