<svg width="276" height="132" viewBox="0 0 276 132" fill="none" xmlns="http://www.w3.org/2000/svg">
<mask id="mask0_329_1981" style="mask-type:alpha" maskUnits="userSpaceOnUse" x="11" y="1" width="254" height="132">
<rect x="11.1333" y="1.92041" width="253.733" height="130.08" fill="#D9D9D9"/>
</mask>
<g mask="url(#mask0_329_1981)">
<mask id="path-2-inside-1_329_1981" fill="white">
<path d="M19.1697 131.208C14.7499 131.31 11.0596 127.804 11.2358 123.387C11.9314 105.954 16.1583 88.8251 23.6832 73.0878C32.3575 54.9469 45.1627 39.1806 61.0316 27.1032C76.9006 15.0257 95.3735 6.98689 114.911 3.65672C131.845 0.770213 149.154 1.49377 165.75 5.74732C169.998 6.83595 172.289 11.3257 170.973 15.5085L170.1 18.286C168.764 22.5327 164.223 24.8403 159.896 23.7913C146.186 20.467 131.934 19.9632 117.98 22.3416C101.366 25.1735 85.6574 32.0094 72.163 42.2797C58.6686 52.55 47.7794 65.9571 40.4031 81.3835C34.1746 94.4098 30.6031 108.557 29.8719 122.973C29.6482 127.383 26.1814 131.046 21.7669 131.148L19.1697 131.208Z"/>
</mask>
<path d="M19.1697 131.208C14.7499 131.31 11.0596 127.804 11.2358 123.387C11.9314 105.954 16.1583 88.8251 23.6832 73.0878C32.3575 54.9469 45.1627 39.1806 61.0316 27.1032C76.9006 15.0257 95.3735 6.98689 114.911 3.65672C131.845 0.770213 149.154 1.49377 165.75 5.74732C169.998 6.83595 172.289 11.3257 170.973 15.5085L170.1 18.286C168.764 22.5327 164.223 24.8403 159.896 23.7913C146.186 20.467 131.934 19.9632 117.98 22.3416C101.366 25.1735 85.6574 32.0094 72.163 42.2797C58.6686 52.55 47.7794 65.9571 40.4031 81.3835C34.1746 94.4098 30.6031 108.557 29.8719 122.973C29.6482 127.383 26.1814 131.046 21.7669 131.148L19.1697 131.208Z" stroke="#184BFE" stroke-width="60" stroke-linecap="round" stroke-linejoin="round" mask="url(#path-2-inside-1_329_1981)"/>
<mask id="path-3-inside-2_329_1981" fill="white">
<path d="M170.705 14.6488C171.844 10.3498 176.282 7.78017 180.483 9.23872C203.717 17.3045 224.15 32.2238 239.13 52.1854C254.153 72.2034 262.934 96.2807 264.444 121.311C264.71 125.721 261.096 129.3 256.677 129.292L254.079 129.287C249.661 129.279 246.117 125.686 245.802 121.279C244.316 100.423 236.891 80.3952 224.355 63.691C211.831 47.0031 194.827 34.4593 175.483 27.5231C171.351 26.0416 168.833 21.7149 169.957 17.472L170.705 14.6488Z"/>
</mask>
<path d="M170.705 14.6488C171.844 10.3498 176.282 7.78017 180.483 9.23872C203.717 17.3045 224.15 32.2238 239.13 52.1854C254.153 72.2034 262.934 96.2807 264.444 121.311C264.71 125.721 261.096 129.3 256.677 129.292L254.079 129.287C249.661 129.279 246.117 125.686 245.802 121.279C244.316 100.423 236.891 80.3952 224.355 63.691C211.831 47.0031 194.827 34.4593 175.483 27.5231C171.351 26.0416 168.833 21.7149 169.957 17.472L170.705 14.6488Z" stroke="white" stroke-width="60" stroke-linecap="round" stroke-linejoin="round" mask="url(#path-3-inside-2_329_1981)"/>
<path d="M99.266 102.594V82.6497L95.126 83.6217V80.0938L101.21 77.3937H104.054V102.594H99.266ZM117.832 103.026C116.104 103.026 114.544 102.726 113.152 102.126C111.76 101.502 110.644 100.626 109.804 99.4977C108.988 98.3697 108.58 97.0617 108.58 95.5737C108.58 94.0377 108.976 92.6937 109.768 91.5417C110.584 90.3897 111.652 89.5617 112.972 89.0577C111.82 88.5537 110.908 87.8337 110.236 86.8977C109.564 85.9377 109.228 84.8697 109.228 83.6937C109.228 82.4937 109.552 81.3897 110.2 80.3817C110.848 79.3497 111.808 78.5217 113.08 77.8977C114.376 77.2737 115.96 76.9617 117.832 76.9617C119.704 76.9617 121.276 77.2737 122.548 77.8977C123.82 78.5217 124.78 79.3497 125.428 80.3817C126.076 81.3897 126.4 82.4937 126.4 83.6937C126.4 84.8457 126.052 85.9137 125.356 86.8977C124.684 87.8577 123.784 88.5777 122.656 89.0577C124 89.5617 125.068 90.3897 125.86 91.5417C126.652 92.6937 127.048 94.0377 127.048 95.5737C127.048 97.0617 126.64 98.3697 125.824 99.4977C125.008 100.626 123.892 101.502 122.476 102.126C121.084 102.726 119.536 103.026 117.832 103.026ZM117.832 87.6897C119.08 87.6897 120.064 87.3657 120.784 86.7177C121.504 86.0697 121.864 85.2417 121.864 84.2337C121.864 83.1297 121.504 82.2657 120.784 81.6417C120.088 81.0177 119.104 80.7057 117.832 80.7057C116.536 80.7057 115.54 81.0177 114.844 81.6417C114.148 82.2657 113.8 83.1297 113.8 84.2337C113.8 85.2657 114.148 86.1057 114.844 86.7537C115.564 87.3777 116.56 87.6897 117.832 87.6897ZM117.832 99.1737C119.368 99.1737 120.532 98.8017 121.324 98.0577C122.116 97.2897 122.512 96.3297 122.512 95.1777C122.512 93.9057 122.092 92.9097 121.252 92.1897C120.436 91.4697 119.296 91.1097 117.832 91.1097C116.368 91.1097 115.204 91.4697 114.34 92.1897C113.5 92.9097 113.08 93.9057 113.08 95.1777C113.08 96.3297 113.476 97.2897 114.268 98.0577C115.084 98.8017 116.272 99.1737 117.832 99.1737ZM133.453 102.846C132.613 102.846 131.917 102.582 131.365 102.054C130.837 101.526 130.573 100.89 130.573 100.146C130.573 99.3777 130.837 98.7297 131.365 98.2017C131.917 97.6737 132.613 97.4097 133.453 97.4097C134.293 97.4097 134.977 97.6737 135.505 98.2017C136.057 98.7297 136.333 99.3777 136.333 100.146C136.333 100.89 136.057 101.526 135.505 102.054C134.977 102.582 134.293 102.846 133.453 102.846ZM133.453 89.7417C132.613 89.7417 131.917 89.4777 131.365 88.9497C130.837 88.4217 130.573 87.7857 130.573 87.0417C130.573 86.2737 130.837 85.6257 131.365 85.0977C131.917 84.5697 132.613 84.3057 133.453 84.3057C134.293 84.3057 134.977 84.5697 135.505 85.0977C136.057 85.6257 136.333 86.2737 136.333 87.0417C136.333 87.7857 136.057 88.4217 135.505 88.9497C134.977 89.4777 134.293 89.7417 133.453 89.7417ZM139.688 102.594V99.2457C141.224 97.9737 142.712 96.7137 144.152 95.4657C145.616 94.2177 146.912 92.9817 148.04 91.7577C149.192 90.5337 150.104 89.3457 150.776 88.1937C151.472 87.0177 151.82 85.8777 151.82 84.7737C151.82 83.7417 151.532 82.8297 150.956 82.0377C150.404 81.2457 149.48 80.8497 148.184 80.8497C146.864 80.8497 145.868 81.2817 145.196 82.1457C144.524 83.0097 144.188 84.0537 144.188 85.2777H139.724C139.772 83.4297 140.18 81.8937 140.948 80.6697C141.716 79.4217 142.736 78.4977 144.008 77.8977C145.28 77.2737 146.708 76.9617 148.292 76.9617C150.86 76.9617 152.852 77.6697 154.268 79.0857C155.708 80.4777 156.428 82.2897 156.428 84.5217C156.428 85.9137 156.104 87.2697 155.456 88.5897C154.832 89.9097 154.004 91.1817 152.972 92.4057C151.94 93.6297 150.824 94.7817 149.624 95.8617C148.424 96.9177 147.26 97.9017 146.132 98.8137H157.04V102.594H139.688ZM170.334 103.026C168.438 103.026 166.842 102.678 165.546 101.982C164.25 101.286 163.206 100.35 162.414 99.1737C161.622 97.9977 161.046 96.6897 160.686 95.2497C160.35 93.8097 160.182 92.3337 160.182 90.8217C160.182 88.0137 160.578 85.5777 161.37 83.5137C162.162 81.4257 163.302 79.8177 164.79 78.6897C166.278 77.5377 168.078 76.9617 170.19 76.9617C171.918 76.9617 173.382 77.3097 174.582 78.0057C175.806 78.6777 176.754 79.5657 177.426 80.6697C178.098 81.7737 178.494 82.9617 178.614 84.2337H174.33C174.114 83.1297 173.646 82.2777 172.926 81.6777C172.206 81.0777 171.282 80.7777 170.154 80.7777C168.546 80.7777 167.25 81.5217 166.266 83.0097C165.282 84.4737 164.754 86.7177 164.682 89.7417C165.258 88.7577 166.122 87.9417 167.274 87.2937C168.426 86.6457 169.71 86.3217 171.126 86.3217C172.518 86.3217 173.826 86.6577 175.05 87.3297C176.274 88.0017 177.258 88.9497 178.002 90.1737C178.77 91.3977 179.154 92.8377 179.154 94.4937C179.154 96.0057 178.782 97.4097 178.038 98.7057C177.318 100.002 176.286 101.046 174.942 101.838C173.622 102.63 172.086 103.026 170.334 103.026ZM170.082 99.0657C171.426 99.0657 172.53 98.6577 173.394 97.8418C174.282 97.0017 174.726 95.9457 174.726 94.6737C174.726 93.3297 174.282 92.2497 173.394 91.4337C172.506 90.6177 171.378 90.2097 170.01 90.2097C169.122 90.2097 168.318 90.4137 167.598 90.8217C166.902 91.2057 166.35 91.7337 165.942 92.4057C165.534 93.0537 165.33 93.7857 165.33 94.6017C165.33 95.8977 165.774 96.9657 166.662 97.8057C167.574 98.6457 168.714 99.0657 170.082 99.0657Z" fill="white"/>
</g>
<g filter="url(#filter0_d_329_1981)">
<circle cx="168.739" cy="16.7363" r="16.0854" fill="#184BFE"/>
<circle cx="168.739" cy="16.7363" r="13.5854" stroke="white" stroke-width="5"/>
</g>
<defs>
<filter id="filter0_d_329_1981" x="144.654" y="0.650879" width="48.1707" height="48.1707" filterUnits="userSpaceOnUse" color-interpolation-filters="sRGB">
<feFlood flood-opacity="0" result="BackgroundImageFix"/>
<feColorMatrix in="SourceAlpha" type="matrix" values="0 0 0 0 0 0 0 0 0 0 0 0 0 0 0 0 0 0 127 0" result="hardAlpha"/>
<feOffset dy="8"/>
<feGaussianBlur stdDeviation="4"/>
<feComposite in2="hardAlpha" operator="out"/>
<feColorMatrix type="matrix" values="0 0 0 0 0.0509804 0 0 0 0 0.0392157 0 0 0 0 0.172549 0 0 0 0.08 0"/>
<feBlend mode="normal" in2="BackgroundImageFix" result="effect1_dropShadow_329_1981"/>
<feBlend mode="normal" in="SourceGraphic" in2="effect1_dropShadow_329_1981" result="shape"/>
</filter>
</defs>
</svg>
