<svg width="205" height="219" viewBox="0 0 205 219" fill="none" xmlns="http://www.w3.org/2000/svg">
<g clip-path="url(#clip0_298_1684)">
<mask id="path-1-inside-1_298_1684" fill="white">
<path d="M92.2671 19.0287C93.954 16.2142 97.8044 15.6675 100.208 17.9012L104.19 21.6013C106.215 23.4838 109.365 23.4354 111.332 21.4915L115.198 17.6707C117.531 15.3642 121.397 15.7923 123.17 18.5535L126.106 23.1276C127.6 25.4547 130.662 26.191 133.051 24.7974L137.745 22.0581C140.58 20.4044 144.217 21.7803 145.247 24.8957L146.954 30.0562C147.822 32.6818 150.605 34.1566 153.265 33.4007L158.494 31.915C161.65 31.0181 164.831 33.2554 165.054 36.5291L165.424 41.9519C165.612 44.7109 167.941 46.8315 170.705 46.7609L176.139 46.6221C179.419 46.5384 181.944 49.4965 181.346 52.7228L180.355 58.0672C179.851 60.7862 181.58 63.4194 184.275 64.0385L189.572 65.2554C192.77 65.9901 194.48 69.4831 193.099 72.4594L190.81 77.3895C189.646 79.8978 190.665 82.8781 193.121 84.148L197.95 86.6441C200.865 88.1509 201.652 91.9594 199.574 94.4986L196.131 98.7047C194.379 100.845 194.625 103.985 196.689 105.826L200.745 109.444C203.193 111.629 203.009 115.513 200.364 117.456L195.984 120.673C193.755 122.311 193.213 125.413 194.753 127.71L197.782 132.223C199.61 134.948 198.466 138.664 195.421 139.888L190.378 141.915C187.812 142.947 186.515 145.817 187.436 148.425L189.247 153.549C190.341 156.643 188.308 159.958 185.054 160.387L179.665 161.096C176.924 161.457 174.954 163.914 175.198 166.669L175.677 172.083C175.967 175.352 173.173 178.057 169.916 177.663L164.519 177.01C161.774 176.678 159.255 178.568 158.806 181.297L157.924 186.66C157.392 189.898 154.013 191.824 150.956 190.632L145.892 188.657C143.315 187.653 140.405 188.857 139.292 191.388L137.104 196.364C135.783 199.368 132.031 200.393 129.367 198.478L124.953 195.306C122.707 193.692 119.589 194.135 117.881 196.31L114.524 200.585C112.498 203.166 108.609 203.226 106.505 200.708L103.018 196.538C101.244 194.417 98.1136 194.07 95.9186 195.752L91.6043 199.058C88.9998 201.054 85.2185 200.145 83.8059 197.183L81.466 192.277C80.2755 189.781 77.3294 188.667 74.7851 189.75L69.7841 191.88C66.7651 193.165 63.3287 191.344 62.697 188.124L61.6507 182.79C61.1183 180.077 58.5419 178.265 55.8081 178.681L50.4347 179.5C47.1908 179.994 44.3153 177.376 44.5042 174.1L44.8172 168.674C44.9764 165.913 42.9316 163.517 40.1801 163.241L34.7719 162.697C31.5071 162.369 29.373 159.118 30.3706 155.992L32.0233 150.814C32.8641 148.18 31.4793 145.351 28.883 144.399L23.7799 142.527C20.6991 141.398 19.4406 137.718 21.1844 134.938L24.0728 130.334C25.5424 127.991 24.9047 124.907 22.6267 123.339L18.1492 120.257C15.4462 118.397 15.1424 114.52 17.5226 112.261L21.4654 108.52C23.4714 106.616 23.6208 103.47 21.8042 101.385L18.2338 97.2868C16.0783 94.8127 16.7483 90.9818 19.6154 89.386L24.3648 86.7427C26.7811 85.3978 27.7083 82.3876 26.4673 79.9163L24.0282 75.0589C22.5558 72.1265 24.1574 68.5825 27.3313 67.7499L32.5888 66.3708C35.2637 65.6691 36.9103 62.984 36.323 60.2817L35.1685 54.9703C34.4716 51.7639 36.9042 48.7296 40.1854 48.7125L45.6208 48.6841C48.3861 48.6697 50.6488 46.4785 50.7519 43.715L50.9546 38.2834C51.077 35.0044 54.1878 32.6704 57.3702 33.4698L62.6418 34.794C65.3239 35.4678 68.0604 33.9081 68.8475 31.2571L70.3946 26.0465C71.3286 22.901 74.9221 21.4139 77.8057 22.9797L82.5824 25.5733C85.0126 26.8929 88.0511 26.0628 89.4727 23.6908L92.2671 19.0287Z"/>
</mask>
<path d="M92.2671 19.0287C93.954 16.2142 97.8044 15.6675 100.208 17.9012L104.19 21.6013C106.215 23.4838 109.365 23.4354 111.332 21.4915L115.198 17.6707C117.531 15.3642 121.397 15.7923 123.17 18.5535L126.106 23.1276C127.6 25.4547 130.662 26.191 133.051 24.7974L137.745 22.0581C140.58 20.4044 144.217 21.7803 145.247 24.8957L146.954 30.0562C147.822 32.6818 150.605 34.1566 153.265 33.4007L158.494 31.915C161.65 31.0181 164.831 33.2554 165.054 36.5291L165.424 41.9519C165.612 44.7109 167.941 46.8315 170.705 46.7609L176.139 46.6221C179.419 46.5384 181.944 49.4965 181.346 52.7228L180.355 58.0672C179.851 60.7862 181.58 63.4194 184.275 64.0385L189.572 65.2554C192.77 65.9901 194.48 69.4831 193.099 72.4594L190.81 77.3895C189.646 79.8978 190.665 82.8781 193.121 84.148L197.95 86.6441C200.865 88.1509 201.652 91.9594 199.574 94.4986L196.131 98.7047C194.379 100.845 194.625 103.985 196.689 105.826L200.745 109.444C203.193 111.629 203.009 115.513 200.364 117.456L195.984 120.673C193.755 122.311 193.213 125.413 194.753 127.71L197.782 132.223C199.61 134.948 198.466 138.664 195.421 139.888L190.378 141.915C187.812 142.947 186.515 145.817 187.436 148.425L189.247 153.549C190.341 156.643 188.308 159.958 185.054 160.387L179.665 161.096C176.924 161.457 174.954 163.914 175.198 166.669L175.677 172.083C175.967 175.352 173.173 178.057 169.916 177.663L164.519 177.01C161.774 176.678 159.255 178.568 158.806 181.297L157.924 186.66C157.392 189.898 154.013 191.824 150.956 190.632L145.892 188.657C143.315 187.653 140.405 188.857 139.292 191.388L137.104 196.364C135.783 199.368 132.031 200.393 129.367 198.478L124.953 195.306C122.707 193.692 119.589 194.135 117.881 196.31L114.524 200.585C112.498 203.166 108.609 203.226 106.505 200.708L103.018 196.538C101.244 194.417 98.1136 194.07 95.9186 195.752L91.6043 199.058C88.9998 201.054 85.2185 200.145 83.8059 197.183L81.466 192.277C80.2755 189.781 77.3294 188.667 74.7851 189.75L69.7841 191.88C66.7651 193.165 63.3287 191.344 62.697 188.124L61.6507 182.79C61.1183 180.077 58.5419 178.265 55.8081 178.681L50.4347 179.5C47.1908 179.994 44.3153 177.376 44.5042 174.1L44.8172 168.674C44.9764 165.913 42.9316 163.517 40.1801 163.241L34.7719 162.697C31.5071 162.369 29.373 159.118 30.3706 155.992L32.0233 150.814C32.8641 148.18 31.4793 145.351 28.883 144.399L23.7799 142.527C20.6991 141.398 19.4406 137.718 21.1844 134.938L24.0728 130.334C25.5424 127.991 24.9047 124.907 22.6267 123.339L18.1492 120.257C15.4462 118.397 15.1424 114.52 17.5226 112.261L21.4654 108.52C23.4714 106.616 23.6208 103.47 21.8042 101.385L18.2338 97.2868C16.0783 94.8127 16.7483 90.9818 19.6154 89.386L24.3648 86.7427C26.7811 85.3978 27.7083 82.3876 26.4673 79.9163L24.0282 75.0589C22.5558 72.1265 24.1574 68.5825 27.3313 67.7499L32.5888 66.3708C35.2637 65.6691 36.9103 62.984 36.323 60.2817L35.1685 54.9703C34.4716 51.7639 36.9042 48.7296 40.1854 48.7125L45.6208 48.6841C48.3861 48.6697 50.6488 46.4785 50.7519 43.715L50.9546 38.2834C51.077 35.0044 54.1878 32.6704 57.3702 33.4698L62.6418 34.794C65.3239 35.4678 68.0604 33.9081 68.8475 31.2571L70.3946 26.0465C71.3286 22.901 74.9221 21.4139 77.8057 22.9797L82.5824 25.5733C85.0126 26.8929 88.0511 26.0628 89.4727 23.6908L92.2671 19.0287Z" fill="white" stroke="black" stroke-width="2" mask="url(#path-1-inside-1_298_1684)"/>
<mask id="path-2-inside-2_298_1684" fill="white">
<path d="M93.4865 27.6193C95.1734 24.8048 99.0239 24.2581 101.428 26.4918L104.306 29.1665C106.331 31.049 109.481 31.0006 111.448 29.0567L114.242 26.2948C116.576 23.9882 120.442 24.4163 122.214 27.1776L124.337 30.484C125.831 32.8111 128.893 33.5475 131.282 32.1538L134.676 30.1736C137.51 28.52 141.147 29.8959 142.177 33.0112L143.411 36.7417C144.279 39.3672 147.062 40.842 149.723 40.0862L153.502 39.0122C156.658 38.1153 159.839 40.3526 160.063 43.6263L160.33 47.5463C160.518 50.3053 162.847 52.4259 165.611 52.3553L169.539 52.255C172.819 52.1712 175.344 55.1293 174.746 58.3557L174.03 62.219C173.526 64.9381 175.254 67.5713 177.95 68.1904L181.779 69.07C184.977 69.8047 186.687 73.2977 185.305 76.274L183.651 79.8379C182.486 82.3461 183.506 85.3264 185.962 86.5964L189.453 88.4007C192.367 89.9076 193.155 93.7161 191.076 96.2553L188.588 99.2957C186.836 101.436 187.082 104.576 189.146 106.417L192.078 109.032C194.526 111.217 194.342 115.102 191.697 117.044L188.531 119.37C186.302 121.007 185.759 124.11 187.3 126.406L189.489 129.669C191.318 132.394 190.173 136.11 187.129 137.334L183.483 138.8C180.917 139.831 179.62 142.701 180.541 145.309L181.851 149.013C182.944 152.107 180.911 155.422 177.657 155.851L173.762 156.363C171.02 156.724 169.05 159.182 169.294 161.936L169.641 165.85C169.93 169.119 167.137 171.824 163.879 171.43L159.978 170.958C157.233 170.625 154.714 172.516 154.265 175.245L153.627 179.122C153.095 182.359 149.716 184.285 146.659 183.093L142.998 181.666C140.422 180.661 137.512 181.866 136.398 184.397L134.817 187.994C133.496 190.998 129.744 192.023 127.08 190.108L123.889 187.815C121.643 186.201 118.525 186.644 116.817 188.819L114.391 191.909C112.364 194.49 108.476 194.55 106.371 192.033L103.851 189.018C102.077 186.897 98.9462 186.55 96.7512 188.232L93.6324 190.622C91.0279 192.618 87.2466 191.709 85.834 188.747L84.1426 185.201C82.9521 182.705 80.006 181.59 77.4617 182.674L73.8466 184.213C70.8275 185.498 67.3911 183.677 66.7594 180.457L66.0031 176.602C65.4707 173.888 62.8944 172.076 60.1605 172.492L56.2762 173.084C53.0323 173.579 50.1568 170.96 50.3457 167.684L50.572 163.762C50.7312 161.001 48.6864 158.605 45.9349 158.329L42.0254 157.936C38.7605 157.608 36.6264 154.357 37.6241 151.231L38.8188 147.488C39.6596 144.853 38.2748 142.024 35.6785 141.072L31.9896 139.719C28.9088 138.59 27.6503 134.91 29.3941 132.13L31.4821 128.802C32.9516 126.459 32.3139 123.375 30.0359 121.807L26.7993 119.579C24.0963 117.719 23.7924 113.842 26.1726 111.583L29.0228 108.879C31.0288 106.975 31.1782 103.829 29.3617 101.744L26.7806 98.7814C24.6252 96.3073 25.2951 92.4764 28.1623 90.8806L31.5955 88.9698C34.0118 87.625 34.939 84.6147 33.698 82.1434L31.9349 78.6321C30.4624 75.6997 32.064 72.1558 35.2379 71.3232L39.0385 70.3262C41.7133 69.6245 43.36 66.9394 42.7726 64.2372L41.9381 60.3977C41.2412 57.1912 43.6738 54.1569 46.955 54.1398L50.8841 54.1193C53.6494 54.1049 55.9121 51.9136 56.0152 49.1502L56.1618 45.2238C56.2841 41.9448 59.3949 39.6107 62.5774 40.4102L66.3881 41.3675C69.0701 42.0412 71.8067 40.4815 72.5938 37.8305L73.7122 34.0639C74.6461 30.9184 78.2397 29.4313 81.1233 30.997L84.5763 32.8719C87.0065 34.1915 90.0449 33.3614 91.4666 30.9894L93.4865 27.6193Z"/>
</mask>
<path d="M93.4865 27.6193C95.1734 24.8048 99.0239 24.2581 101.428 26.4918L104.306 29.1665C106.331 31.049 109.481 31.0006 111.448 29.0567L114.242 26.2948C116.576 23.9882 120.442 24.4163 122.214 27.1776L124.337 30.484C125.831 32.8111 128.893 33.5475 131.282 32.1538L134.676 30.1736C137.51 28.52 141.147 29.8959 142.177 33.0112L143.411 36.7417C144.279 39.3672 147.062 40.842 149.723 40.0862L153.502 39.0122C156.658 38.1153 159.839 40.3526 160.063 43.6263L160.33 47.5463C160.518 50.3053 162.847 52.4259 165.611 52.3553L169.539 52.255C172.819 52.1712 175.344 55.1293 174.746 58.3557L174.03 62.219C173.526 64.9381 175.254 67.5713 177.95 68.1904L181.779 69.07C184.977 69.8047 186.687 73.2977 185.305 76.274L183.651 79.8379C182.486 82.3461 183.506 85.3264 185.962 86.5964L189.453 88.4007C192.367 89.9076 193.155 93.7161 191.076 96.2553L188.588 99.2957C186.836 101.436 187.082 104.576 189.146 106.417L192.078 109.032C194.526 111.217 194.342 115.102 191.697 117.044L188.531 119.37C186.302 121.007 185.759 124.11 187.3 126.406L189.489 129.669C191.318 132.394 190.173 136.11 187.129 137.334L183.483 138.8C180.917 139.831 179.62 142.701 180.541 145.309L181.851 149.013C182.944 152.107 180.911 155.422 177.657 155.851L173.762 156.363C171.02 156.724 169.05 159.182 169.294 161.936L169.641 165.85C169.93 169.119 167.137 171.824 163.879 171.43L159.978 170.958C157.233 170.625 154.714 172.516 154.265 175.245L153.627 179.122C153.095 182.359 149.716 184.285 146.659 183.093L142.998 181.666C140.422 180.661 137.512 181.866 136.398 184.397L134.817 187.994C133.496 190.998 129.744 192.023 127.08 190.108L123.889 187.815C121.643 186.201 118.525 186.644 116.817 188.819L114.391 191.909C112.364 194.49 108.476 194.55 106.371 192.033L103.851 189.018C102.077 186.897 98.9462 186.55 96.7512 188.232L93.6324 190.622C91.0279 192.618 87.2466 191.709 85.834 188.747L84.1426 185.201C82.9521 182.705 80.006 181.59 77.4617 182.674L73.8466 184.213C70.8275 185.498 67.3911 183.677 66.7594 180.457L66.0031 176.602C65.4707 173.888 62.8944 172.076 60.1605 172.492L56.2762 173.084C53.0323 173.579 50.1568 170.96 50.3457 167.684L50.572 163.762C50.7312 161.001 48.6864 158.605 45.9349 158.329L42.0254 157.936C38.7605 157.608 36.6264 154.357 37.6241 151.231L38.8188 147.488C39.6596 144.853 38.2748 142.024 35.6785 141.072L31.9896 139.719C28.9088 138.59 27.6503 134.91 29.3941 132.13L31.4821 128.802C32.9516 126.459 32.3139 123.375 30.0359 121.807L26.7993 119.579C24.0963 117.719 23.7924 113.842 26.1726 111.583L29.0228 108.879C31.0288 106.975 31.1782 103.829 29.3617 101.744L26.7806 98.7814C24.6252 96.3073 25.2951 92.4764 28.1623 90.8806L31.5955 88.9698C34.0118 87.625 34.939 84.6147 33.698 82.1434L31.9349 78.6321C30.4624 75.6997 32.064 72.1558 35.2379 71.3232L39.0385 70.3262C41.7133 69.6245 43.36 66.9394 42.7726 64.2372L41.9381 60.3977C41.2412 57.1912 43.6738 54.1569 46.955 54.1398L50.8841 54.1193C53.6494 54.1049 55.9121 51.9136 56.0152 49.1502L56.1618 45.2238C56.2841 41.9448 59.3949 39.6107 62.5774 40.4102L66.3881 41.3675C69.0701 42.0412 71.8067 40.4815 72.5938 37.8305L73.7122 34.0639C74.6461 30.9184 78.2397 29.4313 81.1233 30.997L84.5763 32.8719C87.0065 34.1915 90.0449 33.3614 91.4666 30.9894L93.4865 27.6193Z" fill="#25FD1E" stroke="black" stroke-width="1.7898" mask="url(#path-2-inside-2_298_1684)"/>
<circle cx="109.107" cy="109.107" r="70.9177" transform="rotate(-8.08087 109.107 109.107)" fill="#0123FF" stroke="black" stroke-width="0.894899"/>
<g clip-path="url(#clip1_298_1684)">
<circle cx="109.107" cy="109.107" r="45.1095" transform="rotate(-8.08087 109.107 109.107)" fill="#FFEA01" stroke="black" stroke-width="0.894899"/>
<path d="M143.344 106.487C143.998 115.025 141.437 123.499 136.165 130.247C130.893 136.995 123.29 141.529 114.847 142.961C106.405 144.393 97.732 142.618 90.5302 137.985C83.3285 133.353 78.1176 126.196 75.9198 117.92" stroke="black" stroke-width="0.894899"/>
<ellipse cx="142.812" cy="105.478" rx="7.00618" ry="5.54712" transform="rotate(-8.08087 142.812 105.478)" fill="#FFEA01"/>
<path fill-rule="evenodd" clip-rule="evenodd" d="M136.063 106.33C137.03 109.246 140.217 111.124 143.669 110.634C147.12 110.144 149.659 107.453 149.775 104.383L150.38 104.297C150.301 107.669 147.528 110.639 143.746 111.176C139.964 111.713 136.473 109.632 135.458 106.416L136.063 106.33Z" fill="black"/>
<path fill-rule="evenodd" clip-rule="evenodd" d="M96.8116 116.564C100.89 115.985 103.335 109.454 102.274 101.978C101.212 94.5013 97.0456 88.9097 92.9675 89.4888C89.8821 89.9268 87.7312 93.7714 87.3267 98.8551L91.9504 104.756L87.7211 105.356C89.0503 112.179 92.9702 117.109 96.8116 116.564Z" fill="#000B1F"/>
<path fill-rule="evenodd" clip-rule="evenodd" d="M123.101 112.831C127.179 112.252 129.624 105.722 128.563 98.2454C127.501 90.7689 123.335 85.1773 119.257 85.7563C116.171 86.1944 114.02 90.039 113.616 95.1226L118.24 101.024L114.01 101.624C115.339 108.447 119.259 113.377 123.101 112.831Z" fill="#000B1F"/>
</g>
<g clip-path="url(#clip2_298_1684)">
<path d="M58.6531 110.474L59.5095 105.093L55.7572 104.496L54.2354 101.97L60.5627 98.4746L61.6027 91.939L51.7128 97.7638L46.8344 89.631L45.7582 96.3934L50.1559 103.562L50.1494 103.603L44.7477 102.743L43.8914 108.125L58.6531 110.474Z" fill="white"/>
<path d="M61.827 92.4398L69.477 78.4208L66.5082 76.8008L61.3882 86.1834L58.9509 84.8534L63.5709 76.387L61.0237 74.997L56.4037 83.4634L54.2046 82.2634L59.2246 73.064L56.2559 71.444L48.7059 85.2798L61.827 92.4398Z" fill="white"/>
<path d="M70.5983 76.6419L82.4933 65.9852L80.2366 63.4662L72.2755 70.5986L70.4227 68.5305L77.6064 62.0947L75.67 59.9334L68.4864 66.3692L66.8148 64.5033L74.6204 57.5103L72.3636 54.9914L60.6241 65.5088L70.5983 76.6419Z" fill="white"/>
<path d="M84.4417 65.4054L89.4427 63.2425L87.6278 59.0462L93.6444 56.444C97.5533 54.7534 98.9975 52.15 97.7073 49.1142C96.3648 46.0101 93.4538 45.2221 89.564 46.9044L78.5081 51.686L84.4417 65.4054ZM86.4096 56.2295L84.7273 52.3398L89.1152 50.442C90.8589 49.6879 92.1153 49.9633 92.654 51.2088C93.2009 52.4734 92.5412 53.5776 90.7975 54.3317L86.4096 56.2295Z" fill="white"/>
<path d="M111.948 60.3698C117.431 60.6458 121.082 58.7183 121.216 55.6314C121.353 52.9209 119.253 51.4357 114.234 50.6605L111.476 50.2291C109.567 49.9449 108.751 49.5484 108.779 48.9855C108.84 48.1942 110.429 47.7725 112.556 47.8587C114.851 47.9533 117.277 48.7652 118.848 49.9312L120.528 46.8803C118.753 45.5995 115.83 44.6999 112.682 44.5415C107.365 44.2739 103.646 45.9053 103.484 49.1162C103.351 51.7641 105.307 53.1795 109.994 53.917L112.73 54.3683C114.991 54.7328 115.93 55.1773 115.897 55.8236C115.858 56.5951 114.499 57.0283 112.393 56.9223C109.536 56.7786 106.355 55.6151 104.694 54.1519L102.655 57.2893C104.579 58.9329 108.361 60.1893 111.948 60.3698Z" fill="#25FD1E"/>
<path d="M120.811 59.712L125.381 62.0548L129.657 53.7134L129.695 53.7325L129.728 64.2833L133.871 66.407L142.309 60.1989L142.346 60.2179L138.07 68.5593L142.64 70.9021L149.459 57.6005L143.105 54.3434L133.925 61.0389L133.888 61.0199L133.909 49.6293L127.63 46.4104L120.811 59.712Z" fill="#25FD1E"/>
<path d="M142.222 72.4395L146.05 76.2582L156.607 65.6759L152.779 61.8572L142.222 72.4395Z" fill="#25FD1E"/>
<path d="M147.22 77.4737L155.077 89.6963L158.431 87.5402L153.521 79.9011L162.74 73.9746L159.794 69.3911L147.22 77.4737Z" fill="#25FD1E"/>
<path d="M155.72 90.8308L159.495 106.349L162.781 105.549L160.255 95.1635L162.952 94.5073L165.232 103.879L168.052 103.193L165.772 93.8214L168.206 93.2293L170.683 103.412L173.969 102.613L170.244 87.2979L155.72 90.8308Z" fill="#25FD1E"/>
<path d="M159.306 109.562L156.857 125.343L160.199 125.862L161.838 115.3L164.582 115.726L163.102 125.256L165.97 125.702L167.449 116.171L169.925 116.555L168.317 126.911L171.659 127.43L174.077 111.854L159.306 109.562Z" fill="white"/>
<path d="M154.049 130.762L151.08 136.11L160.55 149.846L163.296 144.9L156.564 135.693L156.585 135.657L167.968 136.486L170.705 131.558L154.049 130.762Z" fill="white"/>
<path d="M147.395 141.965L135.324 152.422L137.538 154.978L145.617 147.98L147.435 150.078L140.145 156.394L142.045 158.587L149.335 152.272L150.975 154.165L143.054 161.027L145.269 163.583L157.182 153.263L147.395 141.965Z" fill="white"/>
<path d="M120.102 157.938C118.812 158.422 117.464 159.464 116.952 160.415L118.583 162.144C118.714 161.782 119.117 161.43 119.45 161.305C119.997 161.099 120.417 161.209 120.803 161.465L122.365 162.596C122.888 162.979 123.458 163.189 123.993 163.188L124 163.208C121.624 164.658 120.689 166.682 121.475 168.773C122.533 171.587 125.292 172.401 129.044 170.992L140.808 166.571L135.551 152.579L130.45 154.495L132.198 159.146L129.208 160.27C128.289 160.615 127.283 160.547 126.388 159.947L124.958 158.811C123.723 157.96 122.213 157.144 120.102 157.938ZM133.277 162.019L134.577 165.478L129.437 167.409C127.972 167.96 126.869 167.638 126.458 166.544C126.054 165.469 126.672 164.501 128.138 163.95L133.277 162.019Z" fill="white"/>
<path d="M110.888 159.167L105.44 159.061L105.341 164.154L97.9905 173.866L103.793 173.979L107.965 167.754L107.986 167.755L112.121 174.141L117.861 174.253L110.789 164.26L110.888 159.167Z" fill="white"/>
<path d="M98.7936 159.036L89.0043 154.903C83.6576 152.645 79.6372 153.848 77.7695 158.272C75.9019 162.695 77.8435 166.416 83.1901 168.673L92.9794 172.806L98.7936 159.036ZM92.4712 160.378L89.5236 167.359L85.3117 165.581C82.6576 164.46 81.6934 162.557 82.6354 160.326C83.5773 158.095 85.6053 157.479 88.2593 158.599L92.4712 160.378Z" fill="white"/>
<path d="M81.4493 152.087L77.4733 148.092L74.8136 149.119L69.5564 143.836L70.5815 141.167L66.5907 137.156L61.135 152.865L65.597 157.348L81.4493 152.087ZM71.8873 150.529L65.8147 152.802L65.7852 152.773L68.1175 146.741L71.8873 150.529Z" fill="white"/>
<path d="M64.512 131.538L62.3678 126.529L57.6849 128.534L45.8084 125.829L48.0923 131.164L55.4821 132.406L55.4903 132.425L51.3702 138.822L53.6295 144.099L59.8291 133.543L64.512 131.538Z" fill="white"/>
<path d="M60.3424 117.628C60.087 116.062 58.9337 115.087 57.5944 115.305C56.2346 115.527 55.4716 116.815 55.727 118.381C55.9825 119.946 57.1117 120.904 58.4716 120.683C59.8109 120.464 60.5978 119.194 60.3424 117.628Z" fill="white"/>
</g>
</g>
<defs>
<clipPath id="clip0_298_1684">
<rect width="193" height="193" fill="white" transform="translate(0 27.1301) rotate(-8.08087)"/>
</clipPath>
<clipPath id="clip1_298_1684">
<rect width="91.114" height="91.114" fill="white" transform="translate(57.5983 70.4062) rotate(-8.08087)"/>
</clipPath>
<clipPath id="clip2_298_1684">
<rect width="130.172" height="131.803" fill="white" transform="translate(35.4439 52.8293) rotate(-8.08087)"/>
</clipPath>
</defs>
</svg>
