<svg width="19" height="19" viewBox="0 0 19 19" fill="none" xmlns="http://www.w3.org/2000/svg">
<path fill-rule="evenodd" clip-rule="evenodd" d="M9.72329 0.5C4.58242 0.5 0.446533 4.55122 0.446533 9.58685C0.446533 13.6002 3.1136 17.0078 6.78565 18.2194C7.24949 18.2951 7.4041 18.0301 7.4041 17.765C7.4041 17.5378 7.4041 16.9699 7.4041 16.2127C4.81434 16.7806 4.2732 15.0011 4.2732 15.0011C3.84801 13.941 3.22956 13.6759 3.22956 13.6759C2.37919 13.108 3.30687 13.108 3.30687 13.108C4.23454 13.1837 4.73703 14.0546 4.73703 14.0546C5.54875 15.4554 6.90161 15.039 7.44276 14.8118C7.52006 14.206 7.75198 13.8274 8.02255 13.6002C5.97394 13.373 3.80936 12.5779 3.80936 9.09465C3.80936 8.11024 4.15724 7.27728 4.77569 6.67149C4.69838 6.44431 4.3505 5.53563 4.85299 4.24833C4.85299 4.24833 5.62606 4.02115 7.4041 5.19487C8.13851 5.00556 8.95023 4.89198 9.72329 4.89198C10.4964 4.89198 11.3081 5.00556 12.0425 5.19487C13.8205 4.02115 14.5936 4.24833 14.5936 4.24833C15.0961 5.49777 14.7869 6.40645 14.6709 6.67149C15.2507 7.31514 15.6372 8.11024 15.6372 9.09465C15.6372 12.5779 13.4727 13.3352 11.3854 13.5623C11.7333 13.8274 12.0038 14.3953 12.0038 15.2283C12.0038 16.4399 12.0038 17.4243 12.0038 17.7272C12.0038 17.9543 12.1584 18.2572 12.6609 18.1815C16.333 17.0078 19.0001 13.6002 19.0001 9.58685C19.0001 4.55122 14.8642 0.5 9.72329 0.5Z" fill="white"/>
</svg>
